<svg xmlns="http://www.w3.org/2000/svg" width="49.532" height="16.03" viewBox="0 0 49.532 16.03">
  <g id="icon_payment_visa" transform="translate(-509 -9961)">
    <g id="g4158" transform="translate(427.834 9855.952)">
      <path id="polygon9" d="M437.519,126.245h-4.012l2.51-15.518h4.012Z" transform="translate(-334.89 -5.398)" fill="#00579f"/>
      <path id="path11" d="M577.215,105.708a9.888,9.888,0,0,0-3.6-.661c-3.962,0-6.753,2.113-6.77,5.134-.033,2.229,2,3.467,3.517,4.21,1.552.759,2.08,1.255,2.08,1.932-.016,1.04-1.254,1.519-2.41,1.519a7.987,7.987,0,0,1-3.765-.825l-.528-.248-.562,3.483a12.212,12.212,0,0,0,4.475.826c4.21,0,6.951-2.08,6.984-5.3.016-1.767-1.056-3.12-3.368-4.226-1.4-.71-2.263-1.189-2.263-1.915.016-.66.727-1.337,2.311-1.337a6.817,6.817,0,0,1,2.989.594l.363.165.546-3.351Z" transform="translate(-460.04)" fill="#00579f"/>
      <path id="path13" d="M796.73,120.747c.331-.891,1.6-4.342,1.6-4.342-.017.033.33-.908.528-1.486l.28,1.337s.76,3.715.925,4.49Zm4.953-10.021h-3.1a1.98,1.98,0,0,0-2.1,1.288l-5.96,14.23h4.21l.842-2.328h5.152c.115.545.479,2.328.479,2.328h3.715l-3.237-15.518h0Z" transform="translate(-674.222 -5.398)" fill="#00579f"/>
      <path id="path15" d="M175.742,110.727l-3.93,10.582-.429-2.146a11.878,11.878,0,0,0-5.548-6.5l3.6,13.571h4.243l6.307-15.5Z" transform="translate(-80.476 -5.398)" fill="#00579f"/>
      <path id="path17" d="M87.687,110.727H81.232l-.066.314c5.036,1.288,8.371,4.392,9.741,8.123l-1.4-7.132a1.66,1.66,0,0,0-1.816-1.3Z" transform="translate(0 -5.398)" fill="#faa61a"/>
    </g>
  </g>
</svg>
