<svg xmlns="http://www.w3.org/2000/svg" width="48" height="48" viewBox="0 0 48 48">
  <g id="icon_browse_blue" transform="translate(-1492 -59)">
    <rect id="Background" width="48" height="48" rx="24" transform="translate(1492 59)" fill="none"/>
    <rect id="Area" width="32" height="32" rx="4" transform="translate(1500 67)" fill="none"/>
    <path id="Icon_-_Upload" data-name="Icon - Upload" d="M3,18.106a3,3,0,0,1-3-3V11.18c0-.025,0-.051,0-.076a1,1,0,0,1,2,0v4a1,1,0,0,0,1,1H13a1,1,0,0,0,1-1v-4a1,1,0,1,1,2,0h0v4a3.008,3.008,0,0,1-3,3ZM6.92,10.025V3.773L4.226,6.74A1.079,1.079,0,0,1,2.663,5.25L7.218.338A1.065,1.065,0,0,1,8,0,1.088,1.088,0,0,1,8.78.335L13.334,5.25a1.079,1.079,0,0,1-1.562,1.49L9.077,3.773v6.294A1.045,1.045,0,0,1,8,11.1,1.078,1.078,0,0,1,6.92,10.025Z" transform="translate(1508 73.447)"/>
  </g>
</svg>
