<svg xmlns="http://www.w3.org/2000/svg" width="40" height="40" viewBox="0 0 40 40">
  <g id="icon_menu_home_hover" transform="translate(0.23)">
    <rect id="Background" width="40" height="40" rx="12" transform="translate(-0.23)" fill="none"/>
    <rect id="Area" width="32" height="32" rx="4" transform="translate(3.77 4)" fill="none"/>
    <path id="Icon_-_House" data-name="Icon - House" d="M6,21.965a6,6,0,0,1-6-6v-6A4.951,4.951,0,0,1,.18,8.634a5.851,5.851,0,0,1,2.4-3.893L7.449,1.163a6,6,0,0,1,7.1,0L19.424,4.74a6.161,6.161,0,0,1,1.354,1.347A3.984,3.984,0,0,1,22,8.965v7a6,6,0,0,1-6,6ZM8.633,2.775,3.76,6.353a3.845,3.845,0,0,0-1.6,2.576L2.14,9.05l-.032.117a2.926,2.926,0,0,0-.108.8v6a4.006,4.006,0,0,0,4,4H16a4,4,0,0,0,4-4v-7a1.981,1.981,0,0,0-.611-1.438l-.125-.122-.1-.141a4.192,4.192,0,0,0-.92-.912L13.367,2.775a4,4,0,0,0-4.734,0ZM8,17.058a1,1,0,0,1,0-2h6a1,1,0,0,1,0,2Z" transform="translate(8.999 8.942)"/>
  </g>
</svg>
