<svg xmlns="http://www.w3.org/2000/svg" width="48" height="48" viewBox="0 0 48 48">
  <g id="icon_view" transform="translate(-1492 -59)">
    <rect id="Background" width="48" height="48" rx="24" transform="translate(1492 59)" fill="none"/>
    <rect id="Area" width="32" height="32" rx="4" transform="translate(1500 67)" fill="none"/>
    <path id="Icon_-_View" data-name="Icon - View" d="M23.854,40.588C21.6,35.479,17.121,32,12,32S2.4,35.483.145,40.588A2.558,2.558,0,0,0,0,41.333a2.136,2.136,0,0,0,.145.71C2.405,47.188,6.879,50.667,12,50.667s9.6-3.482,11.854-8.587A2.828,2.828,0,0,0,24,41.333,2.569,2.569,0,0,0,23.854,40.588ZM12,48.667c-4.145,0-7.967-2.812-9.983-7.3C4.042,36.808,7.858,34,12,34s7.967,2.813,9.983,7.3C19.921,45.858,16.142,48.667,12,48.667ZM12,36a5.333,5.333,0,1,0,5.333,5.338A5.333,5.333,0,0,0,12,36Zm0,8.667a3.337,3.337,0,0,1-3.333-3.333c0-.031.008-.06.009-.091A2.637,2.637,0,0,0,12,38.667a2.613,2.613,0,0,0-.091-.657c.033,0,.062-.009.091-.009a3.333,3.333,0,1,1,0,6.667Z" transform="translate(1504.001 41.666)"/>
  </g>
</svg>
