<svg xmlns="http://www.w3.org/2000/svg" width="40" height="40" viewBox="0 0 40 40">
  <g id="icon_menu_contact_hover" transform="translate(0.23)">
    <rect id="Background" width="40" height="40" rx="12" transform="translate(-0.23)" fill="none"/>
    <rect id="Area" width="32" height="32" rx="4" transform="translate(3.77 4)" fill="none"/>
    <path id="Icon_-_Email" data-name="Icon - Email" d="M3,17a3.1,3.1,0,0,1-3-3.192V3.186A3.094,3.094,0,0,1,3,0H17a3.1,3.1,0,0,1,3,3.186V13.808A3.1,3.1,0,0,1,17,17ZM2,13.808A1.113,1.113,0,0,0,3,15H17a1.11,1.11,0,0,0,1-1.19V5.1l-7.393,5.686A.986.986,0,0,1,10,11a1.011,1.011,0,0,1-.609-.207L2,5.1Zm8-5.073,7.9-6.073A1,1,0,0,0,17,2H3a1.006,1.006,0,0,0-.9.658Z" transform="translate(9.771 12)" stroke="rgba(0,0,0,0)" stroke-width="1"/>
  </g>
</svg>
