<svg xmlns="http://www.w3.org/2000/svg" width="40" height="40" viewBox="0 0 40 40">
  <g id="icon_menu_wheel_hover" transform="translate(0.23)">
    <rect id="Background" width="40" height="40" rx="12" transform="translate(-0.23)" fill="none"/>
    <rect id="Area" width="32" height="32" rx="4" transform="translate(3.77 4)" fill="none"/>
    <path id="Icon_-_Wheel" data-name="Icon - Wheel" d="M15.905,11.2a4.2,4.2,0,1,1,8.4,0,4.2,4.2,0,1,1-8.4,0Zm4.2-2.1a2.1,2.1,0,1,0,2.1,2.1A2.1,2.1,0,0,0,20.1,9.1ZM21.727,0a2.1,2.1,0,0,1,2.043,1.607l.341,1.42a8.731,8.731,0,0,1,1.063.615l1.4-.413a2.1,2.1,0,0,1,2.414.964L30.615,7a2.11,2.11,0,0,1-.372,2.572l-1.063.971c.013.241.022.446.022.652s-.009.411-.022.612l1.063,1.01a2.11,2.11,0,0,1,.372,2.572L28.992,18.2a2.108,2.108,0,0,1-2.414.967l-1.4-.416a9.1,9.1,0,0,1-1.063.617l-.341,1.422a2.1,2.1,0,0,1-2.043,1.605H18.481a2.1,2.1,0,0,1-2.043-1.605L16.1,19.368a9.1,9.1,0,0,1-1.063-.617l-1.443.416a2.073,2.073,0,0,1-2.373-.967L9.6,15.392a2.1,2.1,0,0,1,.371-2.572l1.06-1.01c-.014-.2-.021-.407-.021-.652,0-.166.007-.372.021-.612l-1.06-.971A2.1,2.1,0,0,1,9.6,7l1.623-2.809a2.067,2.067,0,0,1,2.373-.964l1.443.413A8.731,8.731,0,0,1,16.1,3.027l.341-1.42A2.1,2.1,0,0,1,18.481,0ZM17.9,4.531l-.49.206a6.9,6.9,0,0,0-1.54.892l-.424.324-2.4-.709L11.414,8.052,13.229,9.78l-.067.525a7.138,7.138,0,0,0,0,1.785l.067.525-1.815,1.728,1.623,2.808,2.4-.709.424.324a6.9,6.9,0,0,0,1.54.892l.49.206.586,2.432h3.245l.586-2.432.49-.206a6.9,6.9,0,0,0,1.54-.892l.424-.324,2.406.709L28.8,14.342,26.98,12.614l.066-.525a7.03,7.03,0,0,0,0-1.785L26.98,9.78,28.8,8.052,27.172,5.244l-2.406.709-.424-.324a6.9,6.9,0,0,0-1.54-.892l-.49-.206L21.727,2.1H18.481Z" transform="translate(-0.104 8.802)" stroke="rgba(0,0,0,0)" stroke-width="1"/>
  </g>
</svg>
