<svg xmlns="http://www.w3.org/2000/svg" width="40" height="40" viewBox="0 0 40 40">
  <g id="icon_menu_portrait_hover" transform="translate(0.23)">
    <rect id="Background" width="40" height="40" rx="12" transform="translate(-0.23)" fill="none"/>
    <rect id="Area" width="32" height="32" rx="4" transform="translate(3.77 4)" fill="none"/>
    <path id="Subtraction_62" data-name="Subtraction 62" d="M17,22H5a5.006,5.006,0,0,1-5-5V5A5.006,5.006,0,0,1,5,0H17a5,5,0,0,1,5,5V17A5,5,0,0,1,17,22ZM9,12a3,3,0,0,0-3,3,1,1,0,0,0,1,1h8a1,1,0,0,0,1-1,3,3,0,0,0-3-3Zm2-6a2,2,0,1,0,2,2A2,2,0,0,0,11,6Z" transform="translate(8.771 9)"/>
  </g>
</svg>
