<svg xmlns="http://www.w3.org/2000/svg" width="40" height="40" viewBox="0 0 40 40">
  <g id="icon_menu_bag_hover" transform="translate(0.23)">
    <rect id="Background" width="40" height="40" rx="12" transform="translate(-0.23)" fill="none"/>
    <rect id="Area" width="32" height="32" rx="4" transform="translate(3.77 4)" fill="none"/>
    <path id="Icon_-_Bag" data-name="Icon - Bag" d="M5,24a5,5,0,0,1-5-5V11A4,4,0,0,1,4,7H5V6A6,6,0,1,1,17,6V7h2a3.006,3.006,0,0,1,3,3v9a5,5,0,0,1-5,5ZM2,11v8a3,3,0,0,0,3,3H17a3.005,3.005,0,0,0,3-3V10a1,1,0,0,0-1-1H4A2,2,0,0,0,2,11ZM7,6V7h8V6A4,4,0,0,0,7,6Zm8,6a1,1,0,1,1,1,1A1,1,0,0,1,15,12ZM5,12a1,1,0,1,1,1,1A1,1,0,0,1,5,12Z" transform="translate(8.771 8)" stroke="rgba(0,0,0,0)" stroke-width="1"/>
  </g>
</svg>
