<svg xmlns="http://www.w3.org/2000/svg" width="48" height="48" viewBox="0 0 48 48">
  <g id="icon_email" transform="translate(-1492 -59)">
    <rect id="Background" width="48" height="48" rx="24" transform="translate(1492 59)" fill="none"/>
    <rect id="Area" width="32" height="32" rx="4" transform="translate(1500 67)" fill="none"/>
    <path id="Icon_-_Email" data-name="Icon - Email" d="M22902.7,2988a3.1,3.1,0,0,1-3-3.192v-10.624a3.1,3.1,0,0,1,3-3.187h14a3.1,3.1,0,0,1,3,3.187v10.624a3.1,3.1,0,0,1-3,3.192Zm-1-3.192a1.113,1.113,0,0,0,1,1.191h14a1.11,1.11,0,0,0,1-1.191V2976.1l-7.393,5.687a.986.986,0,0,1-.609.207,1.011,1.011,0,0,1-.609-.207l-7.391-5.69Zm8-5.073,7.9-6.074a1,1,0,0,0-.9-.661h-14a1.006,1.006,0,0,0-.9.659Z" transform="translate(-21393.701 -2895.999)"/>
  </g>
</svg>
