<svg xmlns="http://www.w3.org/2000/svg" width="54" height="56" viewBox="0 0 54 56">
  <g id="icon_professional" transform="translate(-12 -8)">
    <rect id="Background" width="54" height="56" rx="20" transform="translate(12 8)" fill="none"/>
    <rect id="Area" width="48" height="48" rx="4" transform="translate(15 12)" fill="none"/>
    <path id="Icon_-_Bag" data-name="Icon - Bag" d="M3,20a3,3,0,0,1-3-3V7A3,3,0,0,1,3,4H5V3A3,3,0,0,1,8,0h4a3,3,0,0,1,3,3V4h2a3,3,0,0,1,3,3V17a3,3,0,0,1-3,3ZM2,7V17a1,1,0,0,0,1,1H17a1,1,0,0,0,1-1V12H13a2,2,0,0,1-2,2H9a2,2,0,0,1-2-2H2V10H18V7a1,1,0,0,0-1-1H3A1,1,0,0,0,2,7ZM13,4V3a1,1,0,0,0-1-1H8A1,1,0,0,0,7,3V4Z" transform="translate(28 25)"/>
  </g>
</svg>
