<svg xmlns="http://www.w3.org/2000/svg" width="40" height="40" viewBox="0 0 40 40">
  <g id="icon_menu_chart_hover" transform="translate(0.23)">
    <rect id="Background" width="40" height="40" rx="12" transform="translate(-0.23)" fill="none"/>
    <rect id="Area" width="32" height="32" rx="4" transform="translate(3.77 4)" fill="none"/>
    <path id="Icon_-_Chart" data-name="Icon - Chart" d="M-9576.748-4705h-2a2,2,0,0,1-2-2v-16a2,2,0,0,1,2-2h2a2,2,0,0,1,2,2v16A2,2,0,0,1-9576.748-4705Zm0-18h-2v16h2Zm-8,18h-2a2,2,0,0,1-2-2v-5a2,2,0,0,1,2-2h2a2,2,0,0,1,2,2v5A2,2,0,0,1-9584.748-4705Zm0-7h-2l0,5h2Zm-8,7h-2a2,2,0,0,1-2-2v-10a2,2,0,0,1,2-2h2a2,2,0,0,1,2,2v10A2,2,0,0,1-9592.748-4705Zm0-12h-2l0,10h2Z" transform="translate(9605.749 4732.999)" stroke="rgba(0,0,0,0)" stroke-width="1"/>
  </g>
</svg>
