<svg id="icon_percentage" xmlns="http://www.w3.org/2000/svg" width="40" height="40" viewBox="0 0 40 40">
  <rect id="Background" width="40" height="40" rx="12" fill="none"/>
  <rect id="Area" width="32" height="32" rx="4" transform="translate(4 4)" fill="none"/>
  <path id="Icon_-_Percetage" data-name="Icon - Percetage" d="M14960.6,2873.5a2.5,2.5,0,1,1,2.5,2.5A2.5,2.5,0,0,1,14960.6,2873.5Zm-8.011,1.51a1.251,1.251,0,0,1,0-1.769l10.253-10.253a1.251,1.251,0,0,1,1.77,1.769l-10.254,10.253a1.251,1.251,0,0,1-1.769,0Zm-.992-10.509a2.5,2.5,0,1,1,2.5,2.5A2.5,2.5,0,0,1,14951.6,2864.5Z" transform="translate(-14938.601 -2849)"/>
</svg>
