<svg xmlns="http://www.w3.org/2000/svg" width="40" height="40" viewBox="0 0 40 40">
  <g id="icon_menu_document_active" transform="translate(0.23)">
    <rect id="Background" width="40" height="40" rx="12" transform="translate(-0.23)" fill="none"/>
    <rect id="Area" width="32" height="32" rx="4" transform="translate(3.77 4)" fill="none"/>
    <path id="Subtraction_62" data-name="Subtraction 62" d="M17.622,22H2.378A2.378,2.378,0,0,1,0,19.623V2.374A2.378,2.378,0,0,1,2.378,0L14.853,0A2.375,2.375,0,0,1,16.532.7L19.3,3.466A2.392,2.392,0,0,1,20,5.144V19.625A2.377,2.377,0,0,1,17.622,22ZM7.006,15a1,1,0,1,0,0,2h6a1,1,0,0,0,0-2Zm0-4a1,1,0,1,0,0,2h6a1,1,0,0,0,0-2ZM14,2a1,1,0,0,0-1,1V5a2,2,0,0,0,2,2h2a1,1,0,0,0,1-1,4,4,0,0,0-4-4Z" transform="translate(9.771 9)"/>
  </g>
</svg>
