<svg id="icon_co_applicant" xmlns="http://www.w3.org/2000/svg" width="40" height="40" viewBox="0 0 40 40">
  <rect id="Background" width="40" height="40" rx="12" fill="none"/>
  <rect id="Area" width="32" height="32" rx="4" transform="translate(4 4)" fill="none"/>
  <path id="Icon_-_People" data-name="Icon - People" d="M15572.731,3362a2,2,0,0,0,.27-1,4.942,4.942,0,0,0-1-3h2.8a3.2,3.2,0,0,1,3.2,3.2.8.8,0,0,1-.8.8Zm-11.732,0a1,1,0,0,1-1-1,4,4,0,0,1,4-4h4a4,4,0,0,1,4,4,1,1,0,0,1-1,1Zm9-7.5a2.5,2.5,0,1,1,2.5,2.5A2.5,2.5,0,0,1,15570,3354.5Zm-7-1.5a3,3,0,1,1,3,3A3,3,0,0,1,15563,3353Z" transform="translate(-15549 -3336)"/>
</svg>
