<svg xmlns="http://www.w3.org/2000/svg" width="54" height="56" viewBox="0 0 54 56">
  <g id="icon_lead" transform="translate(-12 -8)">
    <rect id="Background" width="54" height="56" rx="20" transform="translate(12 8)" fill="none"/>
    <rect id="Area" width="48" height="48" rx="4" transform="translate(15 12)" fill="none"/>
    <path id="Icon_-_Target" data-name="Icon - Target" d="M21.9,9.488a1.031,1.031,0,1,0-2.044.279A9.388,9.388,0,0,1,19.938,11,8.938,8.938,0,0,1,2.063,11,9.075,9.075,0,0,1,7.094,2.962,8.529,8.529,0,0,1,11,2.063a9.063,9.063,0,0,1,1.235.085A1.031,1.031,0,0,0,12.515.1,11.167,11.167,0,0,0,11,0,11,11,0,1,0,22,11,11.135,11.135,0,0,0,21.9,9.488ZM11,6.188a1.031,1.031,0,0,0,0-2.063A6.875,6.875,0,1,0,17.875,11a1.031,1.031,0,0,0-2.063,0A4.812,4.812,0,1,1,11,6.188Zm-.387,3.738a1.032,1.032,0,0,0,1.46,1.46L15.756,7.7l2.671.534a.708.708,0,0,0,.135.013.687.687,0,0,0,.486-.2L21.8,5.3a.687.687,0,0,0-.351-1.16l-2.885-.7-.7-2.885A.687.687,0,0,0,16.7.2l-2.75,2.75a.688.688,0,0,0-.188.621L14.3,6.244Z" transform="translate(28 24.999)"/>
  </g>
</svg>
