<svg xmlns="http://www.w3.org/2000/svg" width="63" height="54" viewBox="0 0 63 54">
  <g id="icon_upload_file" transform="translate(-0.222)">
    <g id="Union_68" data-name="Union 68" transform="translate(0.222)" fill="none">
      <path d="M8,54a8,8,0,0,1-8-8V8A8,8,0,0,1,8,0H28l6.4,8H55a8,8,0,0,1,8,8V46a8,8,0,0,1-8,8Z" stroke="none"/>
      <path d="M 54.99990081787109 48 C 56.10275650024414 48 57 47.10275650024414 57 45.99990081787109 L 57 16.00020027160645 C 57 14.89734268188477 56.10275650024414 14.00010013580322 54.99990081787109 14.00010013580322 L 31.51608657836914 14.00010013580322 L 25.11612319946289 6 L 8.000100135803223 6 C 6.897243022918701 6 6 6.897243022918701 6 8.000100135803223 L 6 45.99990081787109 C 6 47.10275650024414 6.897243022918701 48 8.000100135803223 48 L 54.99990081787109 48 M 54.99990081787109 54 L 8.000100135803223 54 C 3.582000017166138 54 0 50.41799926757812 0 45.99990081787109 L 0 8.000100135803223 C 0 3.582000017166138 3.582000017166138 0 8.000100135803223 0 L 27.99990081787109 0 L 34.39987182617188 8.000100135803223 L 54.99990081787109 8.000100135803223 C 59.41799926757812 8.000100135803223 63 11.58209991455078 63 16.00020027160645 L 63 45.99990081787109 C 63 50.41799926757812 59.41799926757812 54 54.99990081787109 54 Z" stroke="none" fill="#0c3cfd"/>
    </g>
    <path id="Union_69" data-name="Union 69" d="M8.657,19.829V10.072L5.122,13.607A3,3,0,1,1,.879,9.365L9.365.879a2.991,2.991,0,0,1,2.3-.874A2.994,2.994,0,0,1,13.95.879l8.485,8.485a3,3,0,0,1-4.243,4.243l-3.535-3.535v9.757a3,3,0,1,1-6,0Z" transform="translate(19.136 19.172)" fill="#0c3cfd"/>
  </g>
</svg>
