<svg xmlns="http://www.w3.org/2000/svg" width="40" height="40" viewBox="0 0 40 40">
  <g id="icon_menu_wheel_active" transform="translate(0.23)">
    <rect id="Background" width="40" height="40" rx="12" transform="translate(-0.23)" fill="none"/>
    <rect id="Area" width="32" height="32" rx="4" transform="translate(3.77 4)" fill="none"/>
    <path id="Subtraction_47" data-name="Subtraction 47" d="M12.414,22.391H9.17a2.091,2.091,0,0,1-2.043-1.6l-.344-1.421a8.68,8.68,0,0,1-1.059-.615l-1.443.414a1.954,1.954,0,0,1-.57.084,2.091,2.091,0,0,1-1.8-1.051L.283,15.391A2.1,2.1,0,0,1,.652,12.82l1.063-1.012c-.014-.189-.021-.39-.021-.65,0-.207.008-.414.021-.615L.652,9.571A2.1,2.1,0,0,1,.283,7L1.906,4.193a2.091,2.091,0,0,1,1.8-1.05,1.962,1.962,0,0,1,.57.084l1.443.414a9.516,9.516,0,0,1,1.059-.615L7.127,1.6A2.091,2.091,0,0,1,9.17,0h3.244a2.089,2.089,0,0,1,2.041,1.6L14.8,3.025a9.755,9.755,0,0,1,1.059.615l1.408-.414a2.136,2.136,0,0,1,.59-.084,2.1,2.1,0,0,1,1.82,1.05L21.3,7a2.1,2.1,0,0,1-.373,2.571l-1.064.972.006.091c.01.21.018.386.018.565,0,.2-.012.414-.023.61l1.064,1.012a2.1,2.1,0,0,1,.373,2.571L19.678,18.2a2.1,2.1,0,0,1-1.82,1.051,2.127,2.127,0,0,1-.59-.084l-1.408-.414a8.676,8.676,0,0,1-1.059.615l-.346,1.421A2.089,2.089,0,0,1,12.414,22.391ZM10.791,7.7a3.5,3.5,0,1,0,3.5,3.5A3.506,3.506,0,0,0,10.791,7.7Z" transform="translate(9.208 8.803)"/>
  </g>
</svg>
