<svg xmlns="http://www.w3.org/2000/svg" width="48" height="48" viewBox="0 0 48 48">
  <g id="icon_undo" transform="translate(-1492 -59)">
    <rect id="Background" width="48" height="48" rx="24" transform="translate(1492 59)" fill="none"/>
    <rect id="Area" width="32" height="32" rx="4" transform="translate(1500 67)" fill="none"/>
    <path id="Icon_-_Undo" data-name="Icon - Undo" d="M19053.828,1710.369l-3.535-3.536a1.256,1.256,0,0,1,0-1.6l3.535-3.536a1,1,0,0,1,.709-.292.98.98,0,0,1,.7.292,1,1,0,0,1,0,1.417l-1.885,1.885H19061a5,5,0,1,0,0-10h-8a1,1,0,1,1,0-2h8a7,7,0,1,1,0,14h-7.715l1.953,1.953a1,1,0,0,1-1.412,1.416Z" transform="translate(-17543.002 -1617.83)"/>
  </g>
</svg>
