<svg xmlns="http://www.w3.org/2000/svg" width="48" height="48" viewBox="0 0 48 48">
  <g id="icon_filters" transform="translate(-1492 -59)">
    <rect id="Background" width="48" height="48" rx="24" transform="translate(1492 59)" fill="none"/>
    <rect id="Area" width="32" height="32" rx="4" transform="translate(1500 67)" fill="none"/>
    <path id="Icon_-_Filters" data-name="Icon - Filters" d="M-12280-6350a1,1,0,0,1-1-1,1,1,0,0,1,1-1h2a1,1,0,0,1,1,1,1,1,0,0,1-1,1Zm-3-5a1,1,0,0,1-1-1,1,1,0,0,1,1-1h8a1,1,0,0,1,1,1,1,1,0,0,1-1,1Zm-4-5a1,1,0,0,1-1-1,1,1,0,0,1,1-1h16a1,1,0,0,1,1,1,1,1,0,0,1-1,1Z" transform="translate(13795 6439.002)"/>
  </g>
</svg>
