<svg xmlns="http://www.w3.org/2000/svg" width="54" height="56" viewBox="0 0 54 56">
  <g id="icon_password" transform="translate(-12 -8)">
    <rect id="Background" width="54" height="56" rx="20" transform="translate(12 8)" fill="none"/>
    <rect id="Area" width="48" height="48" rx="4" transform="translate(15 12)" fill="none"/>
    <path id="Icon_-_Key" data-name="Icon - Key" d="M-5923.792-3052H-5930v2a1,1,0,0,1-1,1,1,1,0,0,1-1-1v-2h-3v2a1,1,0,0,1-1,1,1,1,0,0,1-1-1v-3a1,1,0,0,1,1-1h12.024a5.5,5.5,0,0,1,5.477-5,5.5,5.5,0,0,1,5.5,5.5,5.5,5.5,0,0,1-5.5,5.5A5.5,5.5,0,0,1-5923.792-3052Zm1.793-1.5a3.5,3.5,0,0,0,3.5,3.5,3.5,3.5,0,0,0,3.5-3.5,3.5,3.5,0,0,0-3.5-3.5A3.5,3.5,0,0,0-5922-3053.5Z" transform="translate(6386.759 -1994.458) rotate(-45)"/>
  </g>
</svg>
