<svg xmlns="http://www.w3.org/2000/svg" width="48" height="48" viewBox="0 0 48 48">
  <g id="icon_refresh" transform="translate(-1492 -59)">
    <rect id="Background" width="48" height="48" rx="24" transform="translate(1492 59)" fill="none"/>
    <rect id="Area" width="32" height="32" rx="4" transform="translate(1500 67)" fill="none"/>
    <path id="Icon_-_Refresh" data-name="Icon - Refresh" d="M7427.458-8066.424a12.68,12.68,0,0,1-2.022-.741,11.359,11.359,0,0,1-5.34-5.007,12.527,12.527,0,0,1-1.5-6.145h-.041l-1.693,1.968a1.079,1.079,0,0,1-1.527.037,1.081,1.081,0,0,1-.035-1.527l3.551-3.915a1.078,1.078,0,0,1,.784-.333,1.087,1.087,0,0,1,.782.333l3.554,3.913a1.088,1.088,0,0,1-.037,1.529,1.077,1.077,0,0,1-1.527-.039l-1.694-1.966h-.113a9.949,9.949,0,0,0,5.645,9.324l.006,0a10.984,10.984,0,0,0,1.728.636,9.864,9.864,0,0,0,9.637-2.562,1,1,0,0,1,1.412-.039,1,1,0,0,1,.041,1.413,11.67,11.67,0,0,1-8.466,3.532A12.112,12.112,0,0,1,7427.458-8066.424Zm12.892-7.833-3.553-3.913a1.083,1.083,0,0,1,.039-1.527,1.075,1.075,0,0,1,1.525.037l1.693,1.966h.114a9.941,9.941,0,0,0-5.645-9.322l-.006,0a11.106,11.106,0,0,0-1.728-.638,9.859,9.859,0,0,0-9.635,2.563,1,1,0,0,1-1.416.039,1,1,0,0,1-.036-1.413,11.881,11.881,0,0,1,11.6-3.121,13.1,13.1,0,0,1,2.024.743,11.378,11.378,0,0,1,5.34,5.007,12.548,12.548,0,0,1,1.5,6.145h.041l1.693-1.966a1.075,1.075,0,0,1,1.525-.037,1.078,1.078,0,0,1,.037,1.525l-3.551,3.915a1.075,1.075,0,0,1-.784.333A1.087,1.087,0,0,1,7440.349-8074.257Z" transform="translate(-5914.382 8161.006)"/>
  </g>
</svg>
