<svg xmlns="http://www.w3.org/2000/svg" width="40" height="40" viewBox="0 0 40 40">
  <g id="icon_menu_bag_active" transform="translate(0.23)">
    <rect id="Background" width="40" height="40" rx="12" transform="translate(-0.23)" fill="none"/>
    <rect id="Area" width="32" height="32" rx="4" transform="translate(3.77 4)" fill="none"/>
    <path id="Subtraction_47" data-name="Subtraction 47" d="M17,24H5a5.007,5.007,0,0,1-5-5V11A4.008,4.008,0,0,1,4,7H5V6A6,6,0,0,1,17,6V7h2a3.009,3.009,0,0,1,3,3.008V19A5,5,0,0,1,17,24ZM16,11a1,1,0,1,0,1,1A1,1,0,0,0,16,11ZM6,11a1,1,0,1,0,1,1A1,1,0,0,0,6,11Zm5-9A4,4,0,0,0,7,6V7h8V6A4,4,0,0,0,11,2Z" transform="translate(8.771 8)"/>
  </g>
</svg>
