<svg xmlns="http://www.w3.org/2000/svg" width="40" height="40" viewBox="0 0 40 40">
  <g id="icon_menu_marker_active" transform="translate(0.23)">
    <rect id="Background" width="40" height="40" rx="12" transform="translate(-0.23)" fill="none"/>
    <rect id="Area" width="32" height="32" rx="4" transform="translate(3.77 4)" fill="none"/>
    <path id="Icon_-_Marker" data-name="Icon - Marker" d="M9,22a4.917,4.917,0,0,1-2.908-1.332,16.163,16.163,0,0,1-2.927-3.3C1.213,14.52,0,11.315,0,9A9,9,0,0,1,18,9c0,2.316-1.213,5.52-3.165,8.364a16.163,16.163,0,0,1-2.927,3.3A4.917,4.917,0,0,1,9,22ZM9,5a4,4,0,1,0,4,4A4,4,0,0,0,9,5Z" transform="translate(10.771 10)" fill="#fff"/>
  </g>
</svg>
