<svg xmlns="http://www.w3.org/2000/svg" width="48" height="48" viewBox="0 0 48 48">
  <g id="icon_file_type_pdf" transform="translate(-466 -324)">
    <rect id="Background" width="48" height="48" rx="12" transform="translate(466 324)" fill="#f6f8fc"/>
    <rect id="Background-2" data-name="Background" width="32" height="32" rx="8" transform="translate(474 332)" fill="#fff"/>
    <path id="Icon_-_PDF" data-name="Icon - PDF" d="M-6211.829-13921h-4.344a3.005,3.005,0,0,1-2.829,2,3,3,0,0,1-3-3,3,3,0,0,1,3-3,3.01,3.01,0,0,1,.518.045l2.075-3.259A2.981,2.981,0,0,1-6217-13930a3,3,0,0,1,3-3,3,3,0,0,1,3,3,2.986,2.986,0,0,1-.592,1.787l2.075,3.258a3.014,3.014,0,0,1,.518-.045,3,3,0,0,1,3,3,3,3,0,0,1-3,3A3.006,3.006,0,0,1-6211.829-13921Zm1.829-1a1,1,0,0,0,1,1,1,1,0,0,0,1-1,1,1,0,0,0-1-1A1,1,0,0,0-6210-13922Zm-10,0a1,1,0,0,0,1,1,1,1,0,0,0,1-1,1,1,0,0,0-1-1A1,1,0,0,0-6220-13922Zm8.174-1a2.99,2.99,0,0,1,.53-.923l-1.923-3.177a2.982,2.982,0,0,1-.78.1,2.984,2.984,0,0,1-.78-.1l-1.923,3.177a3,3,0,0,1,.53.923Zm-3.173-7a1,1,0,0,0,1,1,1,1,0,0,0,1-1,1,1,0,0,0-1-1A1,1,0,0,0-6215-13930Z" transform="translate(6704.002 14273.5)"/>
  </g>
</svg>
