<svg xmlns="http://www.w3.org/2000/svg" width="48" height="48" viewBox="0 0 48 48">
  <g id="icon_phone" transform="translate(-1492 -59)">
    <rect id="Background" width="48" height="48" rx="24" transform="translate(1492 59)" fill="none"/>
    <rect id="Area" width="32" height="32" rx="4" transform="translate(1500 67)" fill="none"/>
    <path id="Path_43459" data-name="Path 43459" d="M8.926,10.151A9.826,9.826,0,0,0,12.6,13.83l.823-1.152a.931.931,0,0,1,1.2-.276,10.633,10.633,0,0,0,4.266,1.27.931.931,0,0,1,.857.928v4.154a.931.931,0,0,1-.836.926A14.437,14.437,0,0,1,3.076,3.836.931.931,0,0,1,4,3H8.156a.931.931,0,0,1,.928.857,10.632,10.632,0,0,0,1.27,4.266.931.931,0,0,1-.276,1.2l-1.152.823ZM6.578,9.539,8.347,8.276A12.483,12.483,0,0,1,7.326,4.862H4.871c-.006.155-.008.31-.008.465A12.565,12.565,0,0,0,17.429,17.894c.155,0,.311,0,.465-.009V15.43a12.483,12.483,0,0,1-3.414-1.021l-1.263,1.769a11.582,11.582,0,0,1-1.478-.7l-.054-.031a11.688,11.688,0,0,1-4.377-4.377l-.031-.054a11.582,11.582,0,0,1-.7-1.478Z" transform="translate(1504.622 71.622)"/>
  </g>
</svg>
