<svg xmlns="http://www.w3.org/2000/svg" width="40" height="40" viewBox="0 0 48 48">
  <g id="icon_arrow_down" transform="translate(-1492 -59)">
    <rect id="Background" width="48" height="48" rx="24" transform="translate(1492 59)" fill="none"/>
    <rect id="Area" width="32" height="32" rx="4" transform="translate(1500 67)" fill="none"/>
    <path id="Icon_-_Arrow" data-name="Icon - Arrow" d="M21.1,6.633a1.08,1.08,0,0,0-1.08-1.08H3.772L7.739,1.86A1.079,1.079,0,0,0,6.25.3L.336,5.852A1.067,1.067,0,0,0,0,6.633a1.085,1.085,0,0,0,.334.782L6.248,12.97a1.08,1.08,0,0,0,1.49-1.564L3.772,7.713H20.064A1.049,1.049,0,0,0,21.1,6.633Z" transform="translate(1508.918 93.55) rotate(-90)" 
    />
  </g>
</svg>
