<svg xmlns="http://www.w3.org/2000/svg" width="48" height="48" viewBox="0 0 48 48">
  <g id="icon_chart" transform="translate(-1492 -59)">
    <rect id="Background" width="48" height="48" rx="24" transform="translate(1492 59)" fill="none"/>
    <rect id="Area" width="32" height="32" rx="4" transform="translate(1500 67)" fill="none"/>
    <path id="Icon_-_Chart" data-name="Icon - Chart" d="M4224,3212.5v-14a1.5,1.5,0,0,1,3,0v14a1.5,1.5,0,0,1-3,0Zm-6,0v-8a1.5,1.5,0,0,1,3,0v8a1.5,1.5,0,0,1-3,0Zm-6,0v-3a1.5,1.5,0,0,1,3,0v3a1.5,1.5,0,0,1-3,0Z" transform="translate(-2704 -3123)"/>
  </g>
</svg>
