<svg xmlns="http://www.w3.org/2000/svg" width="40" height="40" viewBox="0 0 40 40">
  <g id="icon_menu_portrait_active" transform="translate(0.23)">
    <rect id="Background" width="40" height="40" rx="12" transform="translate(-0.23)" fill="none"/>
    <rect id="Area" width="32" height="32" rx="4" transform="translate(3.77 4)" fill="none"/>
    <path id="Icon_-_Person" data-name="Icon - Person" d="M5,22a5,5,0,0,1-5-5V5A5,5,0,0,1,5,0H17a5,5,0,0,1,5,5V17a5,5,0,0,1-5,5ZM2,5V17a3,3,0,0,0,3,3H17a3,3,0,0,0,3-3V5a3,3,0,0,0-3-3H5A3,3,0,0,0,2,5ZM7,16a1,1,0,0,1-1-1,3,3,0,0,1,3-3h4a3,3,0,0,1,3,3,1,1,0,0,1-1,1ZM9,8a2,2,0,1,1,2,2A2,2,0,0,1,9,8Z" transform="translate(8.771 9)"/>
  </g>
</svg>
