<svg xmlns="http://www.w3.org/2000/svg" width="54" height="56" viewBox="0 0 54 56">
  <g id="icon_personal" transform="translate(-12 -8)">
    <rect id="Background" width="54" height="56" rx="20" transform="translate(12 8)" fill="none"/>
    <rect id="Area" width="48" height="48" rx="4" transform="translate(15 12)" fill="none"/>
    <path id="Icon_-_Person" data-name="Icon - Person" d="M15,20a2,2,0,0,0,2-2h0a2,2,0,0,0-2-2H5a2,2,0,0,0-2,2H3a2,2,0,0,0,2,2H15M10,10A4,4,0,1,0,6,6a4,4,0,0,0,4,4m5,12H5a4,4,0,0,1-4-4H1a4,4,0,0,1,4-4H15a4,4,0,0,1,4,4h0A4,4,0,0,1,15,22ZM10,12a6,6,0,1,1,6-6A6,6,0,0,1,10,12Z" transform="translate(29 25)"/>
  </g>
</svg>
