<svg xmlns="http://www.w3.org/2000/svg" width="48" height="48" viewBox="0 0 48 48">
  <g id="icon_chat" transform="translate(-1492 -59)">
    <rect id="Background" width="48" height="48" rx="24" transform="translate(1492 59)" fill="none"/>
    <rect id="Area" width="32" height="32" rx="4" transform="translate(1500 67)" fill="none"/>
    <path id="Icon_-_Chat" data-name="Icon - Chat" d="M-3890.95-2855.526l-2.35-2.473h-3.7a3,3,0,0,1-3-3v-10a3,3,0,0,1,3-3h14a3,3,0,0,1,3,3v10a3,3,0,0,1-3,3h-2.7l-2.349,2.473a2,2,0,0,1-1.45.623A1.993,1.993,0,0,1-3890.95-2855.526ZM-3898-2871v10a1,1,0,0,0,1,1h4.559l2.942,3.1,2.94-3.1H-3883a1,1,0,0,0,1-1v-10a1,1,0,0,0-1-1h-14A1,1,0,0,0-3898-2871Zm4,8a1,1,0,0,1-1-1,1,1,0,0,1,1-1h4a1,1,0,0,1,1,1,1,1,0,0,1-1,1Zm0-4a1,1,0,0,1-1-1,1,1,0,0,1,1-1h8a1,1,0,0,1,1,1,1,1,0,0,1-1,1Z" transform="translate(5406 2948)"/>
  </g>
</svg>
