<svg xmlns="http://www.w3.org/2000/svg" width="48" height="48" viewBox="0 0 48 48">
  <g id="icon_download" transform="translate(-1492 -59)">
    <rect id="Background" width="48" height="48" rx="24" transform="translate(1492 59)" fill="none"/>
    <rect id="Area" width="32" height="32" rx="4" transform="translate(1500 67)" fill="none"/>
    <path id="Icon_-_Download" data-name="Icon - Download" d="M-12600,5089.1a3.007,3.007,0,0,1-3-3v-2h0a1,1,0,0,1,1-1,1,1,0,0,1,1,1v2a1,1,0,0,0,1,1h12a1,1,0,0,0,1-1v-2a1,1,0,0,1,1-1,1,1,0,0,1,1,1v2a3,3,0,0,1-3,3Zm5.216-7.338-4.555-4.912a1.083,1.083,0,0,1,.034-1.528,1.08,1.08,0,0,1,1.528.038l2.691,2.967v-7.253A1.081,1.081,0,0,1-12594,5070a1.048,1.048,0,0,1,1.078,1.038v7.294l2.691-2.967a1.081,1.081,0,0,1,1.528-.038,1.087,1.087,0,0,1,.038,1.528l-4.555,4.915a1.085,1.085,0,0,1-.781.332A1.062,1.062,0,0,1-12594.782,5081.767Z" transform="translate(14110 -4996.553)"/>
  </g>
</svg>
