<svg xmlns="http://www.w3.org/2000/svg" width="48" height="48" viewBox="0 0 48 48">
  <g id="icon_menu" transform="translate(-1492 -59)">
    <rect id="Background" width="48" height="48" rx="24" transform="translate(1492 59)" fill="none"/>
    <rect id="Area" width="32" height="32" rx="4" transform="translate(1500 67)" fill="none"/>
    <path id="Icon_-_Menu" data-name="Icon - Menu" d="M17662,3264.5a1.5,1.5,0,1,1,1.5,1.5A1.5,1.5,0,0,1,17662,3264.5Zm-6,0a1.5,1.5,0,1,1,1.5,1.5A1.5,1.5,0,0,1,17656,3264.5Zm-6,0a1.5,1.5,0,1,1,1.5,1.5A1.5,1.5,0,0,1,17650,3264.5Zm12-6a1.5,1.5,0,1,1,1.5,1.5A1.5,1.5,0,0,1,17662,3258.5Zm-6,0a1.5,1.5,0,1,1,1.5,1.5A1.5,1.5,0,0,1,17656,3258.5Zm-6,0a1.5,1.5,0,1,1,1.5,1.5A1.5,1.5,0,0,1,17650,3258.5Zm12-6a1.5,1.5,0,1,1,1.5,1.5A1.5,1.5,0,0,1,17662,3252.5Zm-6,0a1.5,1.5,0,1,1,1.5,1.5A1.5,1.5,0,0,1,17656,3252.5Zm-6,0a1.5,1.5,0,1,1,1.5,1.5A1.5,1.5,0,0,1,17650,3252.5Z" transform="translate(-16141 -3175.998)"/>
  </g>
</svg>
