<svg xmlns="http://www.w3.org/2000/svg" width="48" height="48" viewBox="0 0 48 48">
  <g id="icon_sort" transform="translate(-1492 -59)">
    <rect id="Background" width="48" height="48" rx="24" transform="translate(1492 59)" fill="none"/>
    <rect id="Area" width="32" height="32" rx="4" transform="translate(1500 67)" fill="none"/>
    <path id="Icon_-_Sort" data-name="Icon - Sort" d="M13.943,19.564a1.25,1.25,0,0,1-1.13-1.13v-5a1,1,0,0,1,2,0v2.7l4.258-4.258a1,1,0,1,1,1.414,1.414l-4.27,4.27h2.727a1,1,0,0,1,0,2ZM8.754,7.718a1,1,0,0,1,0-1.414l4.27-4.27H10.3a1,1,0,0,1,0-2h5A1,1,0,0,1,16.065.4a1,1,0,0,1,.362.77v5a1,1,0,1,1-2,0V3.46L10.168,7.718a1,1,0,0,1-1.414,0Z" transform="translate(1498.733 86.957) rotate(-45)"/>
  </g>
</svg>
