<svg xmlns="http://www.w3.org/2000/svg" width="40" height="40" viewBox="0 0 48 48">
  <g id="icon_calendar" transform="translate(-1492 -59)">
    <rect id="Background" width="48" height="48" rx="24" transform="translate(1492 59)" fill="none"/>
    <rect id="Area" width="32" height="32" rx="4" transform="translate(1500 67)" fill="none"/>
    <path id="Icon_-_Calendar" data-name="Icon - Calendar" d="M3,20a3,3,0,0,1-3-3V5A3,3,0,0,1,3,2H5V1A1,1,0,0,1,7,1V2h6V1a1,1,0,0,1,2,0V2h2a3,3,0,0,1,3,3V9h0v8a3,3,0,0,1-3,3ZM2,17a1,1,0,0,0,1,1H17a1,1,0,0,0,1-1V10H2ZM18,8V5a1,1,0,0,0-1-1H15V5a1,1,0,0,1-2,0V4H7V5A1,1,0,0,1,5,5V4H3A1,1,0,0,0,2,5V8ZM9,15a1,1,0,1,1,0-2h6a1,1,0,0,1,0,2ZM5,15a1,1,0,1,1,0-2H6a1,1,0,1,1,0,2Z" transform="translate(1506 73)"
    />
  </g>
</svg>
