<svg xmlns="http://www.w3.org/2000/svg" width="682.385" height="690.792" viewBox="0 0 682.385 690.792">
  <g id="illustration_home_wind-energy_customer" transform="translate(23.083 13.382)">
    <g id="Background" transform="translate(47.675 112.327)">
      <path id="Path_4508" data-name="Path 4508" d="M108.784,431.65c2.386,4.051,4.8,8.006,7.285,11.881,1.6,2.418,3.122,4.8,4.707,7.173q3.987,5.908,8.1,11.512l.272.352c1.233,1.7,2.514,3.378,3.763,5.028s2.274,2.946,3.427,4.387c.5.609.977,1.233,1.473,1.825l.608.769q1.409,1.777,2.882,3.507c1.3,1.6,2.578,3.074,3.891,4.6s2.386,2.722,3.587,4.067c.624.7,1.233,1.377,1.873,2.066,1.217,1.361,2.466,2.69,3.715,4.019s2.882,3.042,4.339,4.515l.112.128c1.409,1.409,2.818,2.834,4.227,4.211,2.1,2.05,4.2,4.051,6.325,6.02,2.642,2.45,5.316,4.8,8.006,7.173a1.133,1.133,0,0,1,.208.192c3.106,2.674,6.244,5.252,9.415,7.766q7.333,5.828,14.859,11.08,2.5,1.745,5.044,3.458c3.314,2.242,6.677,4.387,10.071,6.4l.3.192c1.6.993,3.282,1.986,4.948,2.962l.336.176q5.076,3.01,10.263,5.748l3.651,1.921,2.13,1.089c1.6.833,3.2,1.6,4.9,2.434,3.587,1.745,7.173,3.394,10.808,5,1.825.785,3.651,1.6,5.476,2.322s3.651,1.505,5.508,2.226,3.667,1.425,5.508,2.114,3.411,1.249,5.124,1.857l1.857.64c1.377.5,2.77.945,4.163,1.425,1.873.608,3.747,1.217,5.62,1.793h.112q8.006,2.5,16.012,4.531c5.652,1.473,11.352,2.738,17.068,3.875h0c80.538,16.172,165.848,2.978,236.859-29.846,1.841-.865,3.667-1.729,5.476-2.642l2.706-1.377c2.322-1.185,4.627-2.45,6.9-3.763,1.041-.576,2.081-1.185,3.106-1.793s1.6-.961,2.434-1.473,1.377-.833,2.049-1.281,1.6-.961,2.306-1.457q7.333-4.8,14.234-10.087c.881-.673,1.761-1.361,2.61-2.066l1.793-1.441L603.462,525c1.6-1.329,3.2-2.674,4.675-4.067.464-.4.9-.8,1.361-1.233s1.345-1.217,2-1.841q4.227-3.955,8.2-8.134l1.409-1.505c3.555-3.795,6.933-7.734,10.151-11.769.865-1.057,1.6-2.13,2.5-3.2,2.61-3.378,5.076-6.853,7.429-10.392.656-1.009,1.329-2.017,1.969-3.026,2.242-3.507,4.339-7.045,6.4-10.664.64-1.153,1.265-2.322,1.873-3.491s1.089-2.1,1.6-3.2q2.85-5.668,5.3-11.544c.416-1.009.833-2.033,1.233-3.074a175.986,175.986,0,0,0,6-17.869c.256-.929.5-1.857.753-2.77a1.584,1.584,0,0,1,0-.272c.176-.721.368-1.409.528-2.13.256-1.073.512-2.13.753-3.2s.512-2.338.753-3.491c.288-1.441.576-2.914.817-4.387s.432-2.514.624-3.795.384-2.61.561-3.923c4.387-33.72-2.322-71.492-20.495-101.225a123.663,123.663,0,0,0-8.2-11.849,112.59,112.59,0,0,0-11.7-12.809,4.162,4.162,0,0,0-.56-.512,103.054,103.054,0,0,0-23.345-16.268l-5.924-2.978c-3.811-1.889-7.493-3.7-11.112-5.412l-3.314-1.6-.5-.24q-3.763-1.745-7.413-3.362-6.821-3.074-13.225-5.732c-1.073-.464-2.146-.9-3.2-1.329-3.2-1.329-6.4-2.61-9.463-3.811-2.338-.929-4.643-1.825-6.933-2.674l-.8-.32c-2.049-.769-4.067-1.6-6.068-2.242-7.894-2.946-15.435-5.6-22.768-8.182-39.212-13.834-73.045-25.875-126.8-66.528-49.124-37.1-106.333-68.61-169.963-63.214-80.346,6.821-149.6,54.311-157.522,138.148C54.986,298.1,76.505,376.57,108.784,431.65Z" transform="translate(-60.029 -95.122)" fill="#fff"/>
      <path id="Path_4510" data-name="Path 4510" d="M72.68,330.278c42.991,58.474,98.7,94.885,158.691,113.522h.112q8.006,2.5,16.012,4.531,8.47,2.194,17.068,3.875h0c80.538,16.156,165.832,2.978,236.859-29.862A202.05,202.05,0,0,0,595.17,333.8c-20.543-14.7-58.923-28.645-124.762-10.824-112.914,30.55-199.456,102.7-274.614,50.1C142.587,335.9,103.6,322.961,72.68,330.278Z" transform="translate(-3.798 36.816)" fill="#fff"/>
    </g>
    <g id="Turbine_02" data-name="Turbine #02" transform="translate(160.146 201.197)">
      <path id="Path_4511" data-name="Path 4511" d="M248.882,409.759l.1-.112.368-.5c.24-.3.448-.592.673-.849h0l7.093-7.189.16-.144,23.857-24.162a1.6,1.6,0,0,0,.224-.256c1.217-1.441,10.151-12.041,13.978-17.981a1.2,1.2,0,0,0,.112-.192,17.507,17.507,0,0,0,.961-1.6,17.156,17.156,0,0,1,1.985-2.834.848.848,0,0,0,.16-.192,66.816,66.816,0,0,1,16.892-13.29l.3-.144a38.947,38.947,0,0,1,3.907-1.873l.272-.112a6.725,6.725,0,0,1-3.491-6.661,3.448,3.448,0,0,1,0-.4.913.913,0,0,1,0-.288v-.24c1.009-4.019,6.084-9.463,10.616-12.585l1.137-.753q.489-.321,1.009-.592l.432-.24h0l1.249-12.073h2.194l.64-7.429s0-2.93-.16-7.606v-.753c-.288-11.208-.945-31.431-2.146-45.873h0c-1.713-21.039-4.227-44.416-5.172-57.241v-.4a1.054,1.054,0,0,0,0-.224c0-.737-.112-1.457-.16-2.178s-.112-1.281-.16-1.905c-.817-9.191-1.809-17.613-.368-21.327a3.2,3.2,0,0,1,1.2-1.6c2.914-1.825,7.477,9.879,10.92,21.327h0c.656,2.242,1.281,4.483,1.841,6.6.08.288.16.56.256.865,2.482,9.447,8.47,32.744,11.8,51.237a107.492,107.492,0,0,1,2.29,20.7v.08c-.721,14.795-1.745,16.012-5.364,27.22a93.111,93.111,0,0,0-4.131,17.853h0l1.729.32,1.377.256,1.121,7.029a16.876,16.876,0,0,1,7.285,1.473,9.176,9.176,0,0,1,3.3,2.5h0l1.6-.352h0a73.346,73.346,0,0,1,11.64-1.233,77.624,77.624,0,0,1,13.113.817h.144c13.145,2.017,24.642,6.261,28.821,8.79a3.628,3.628,0,0,1,.416.256h0a2.373,2.373,0,0,1,.432.3.671.671,0,0,1,.208.176l.144.112a.834.834,0,0,1,.176.16l.16.176c1.329,1.6,2.418,5.3,2.818,9.127h0a22.592,22.592,0,0,1-.256,6.965,5.87,5.87,0,0,1-.32,1.089l-15.771.929-7.221.432-9.735.56h0l1.441,32.616s4,2.93,8.806,7.061A94.647,94.647,0,0,1,406.4,393.988c.288.32.528.657.8,1.009l.993,1.329a1.9,1.9,0,0,1,.256.368,222.921,222.921,0,0,1,11.881,20.159c3.955,7.3,7.381,13.85,8.822,15.868,1.7,2.386,4.8,8.534,8.006,14.154,2.546,4.563,5.124,8.806,6.981,10.391h0c4.115,3.523,6.645,7.317,4.547,8.294s-5.508.4-11.784-4.8a.656.656,0,0,1-.208-.16c-6.213-5.124-22.064-26.2-23.041-27.492s-2.274-2.8-3.442-4.2c-.464-.576-.945-1.185-1.441-1.761-2.834-3.41-6.4-7.782-9.607-11.592-.784-.993-1.6-1.97-2.434-2.962q-.7-.865-1.441-1.729c-1.041-1.281-2.1-2.546-3.2-3.811-3.2-3.731-3.971-3.2-3.971-3.2l.24,5.844.176,3.763h0l5.86,212.554c-5.236-1.041-10.456,1.329-15.643,0-4.932-1.265-14.619,1.521-19.486,0h-.112l7.862-248.436v-.384l-.224-.224-3.475-3.843L345.383,353.4a.577.577,0,0,0-.176-.16,6.405,6.405,0,0,1-.817.5,3.2,3.2,0,0,1-3.122.16c-1.6-1.089-5.156-8.71-5.156-8.71L331.485,344h-.112l-2.258-.576-1.937,1.809-11.784,11.448-.5.464-65.279,60.668-.1.08c-.4.464-4.115,4.483-6.517,3.3C241.036,420.247,246.4,412.929,248.882,409.759Zm115.876-51.477,1.025,1.169.128.144,1.281,1.441h.08V345.473H357.2l-.464,1.905v.272l.945,1.409a114.942,114.942,0,0,0,7.077,9.223Z" transform="translate(-242.579 -157.772)" fill="#fff"/>
      <path id="Path_4512" data-name="Path 4512" d="M296.217,283.98l2.145,3.843,1.937-1.761,2.322.592h.112l4.627,1.185s3.475,7.622,5.156,8.71a3.2,3.2,0,0,0,3.122-.16l-1.073-2.85a10.6,10.6,0,0,1,10.824-7.029l.737,4.6s3.2-5.364,3.122-6.116,4.531-5.668,5.252-12.889-2.834-21.343-21.311-17.517c0,0,5.972.576,8.39,10.44S309.314,281.866,296.217,283.98Z" transform="translate(-213.602 -99.962)" fill="#e1eaf8"/>
      <path id="Path_4513" data-name="Path 4513" d="M297.921,329.017,280.34,310.7l1.681-11.32,14.795,18.253Z" transform="translate(-151.516 -72.643)" fill="#e1eaf8"/>
      <path id="Path_4514" data-name="Path 4514" d="M298.251,266.78v-2.37l-10.071,9.943.817,6.581v16.572c2.626,2.626,7.077,6.213,9.159,7.846C297.931,282.7,297.931,267.532,298.251,266.78Z" transform="translate(-164.4 -93.666)" fill="#e1eaf8"/>
      <path id="Path_4515" data-name="Path 4515" d="M286.59,543.754h.112c4.8,1.521,14.555-1.265,19.486,0-.528-30.278-1.233-153.407-1.793-191.21-.16-10.888-.3-21.552-.448-31.607v-2.306c0-4.307-.112-8.5-.16-12.553V306l-1.265-1.441-2.226-2.546-5.812-6.661h0Z" transform="translate(-169.791 -75.066)" fill="#e1eaf8"/>
      <path id="Path_4516" data-name="Path 4516" d="M316.607,353.382c2.546,1.265,6.549-3.33,6.549-3.33l79.722-74.038,2.322.592a38.108,38.108,0,0,1-11.945-5.956c-8.582,3.459-20.271,12.809-23.249,18.333S354.811,308.9,354.811,308.9L323.62,340.477S314.077,352.117,316.607,353.382Z" transform="translate(-316.18 -89.914)" fill="#e1eaf8"/>
      <path id="Path_4517" data-name="Path 4517" d="M266.246,262.224s47.01-2.77,52.038-.432,4.884,14.09,3.362,18.269L261.523,283.6v-2.786l-.144-.753S267.527,275.722,266.246,262.224Z" transform="translate(-145.813 -95.803)" fill="#e1eaf8"/>
      <path id="Path_4518" data-name="Path 4518" d="M259.81,275.007s8.678,18.782,20.127,26.9,33.864,23.585,53.158,46.77c0,0-10.007-22.048-21.055-31.207S286.1,299.52,281.618,294.8s-16.012-20.527-16.012-20.527Z" transform="translate(-153.819 -87.738)" fill="#e1eaf8"/>
      <path id="Path_4519" data-name="Path 4519" d="M302.3,171.654c6.741,33.929,8.582,81.227,4.243,97.863s-2.9,26.915-2.9,26.915h6.885v-.256l-1.713-.32a90.773,90.773,0,0,1,4.211-18.029c3.635-11.208,4.643-12.457,5.38-27.22s-10.888-59.8-14.314-72.725c-.576-2.146-1.217-4.419-1.889-6.693Z" transform="translate(-207.032 -149.706)" fill="#acbad6"/>
      <path id="Path_4532" data-name="Path 4532" d="M271.792,255.4c3.987,1.265,19.438,6.4,21.1,9.175,2.322,3.923,2.226,15.435,2.082,20.271l7.205-.432c.144-5.892.08-17.1-2.29-21.055-1.937-2.306-6.645-4.627-11.208-6.4a70.2,70.2,0,0,0-10.408-1.777,57.857,57.857,0,0,0-6.485.224Z" transform="translate(-142.136 -99.225)" fill="#acbad6"/>
      <path id="Path_4533" data-name="Path 4533" d="M287.1,256.507s9.287,4.243,10.968,8.758c1.409,3.763.977,16.4.785,20.559l7.3-.448c0-5.252-.16-17.725-.9-20.975-.929-4.131-14.026-8.47-14.026-8.47l-3.122.432Z" transform="translate(-170.573 -98.763)" fill="#acbad6"/>
      <path id="Path_4520" data-name="Path 4520" d="M296.272,253.79c5.524.208,9.783,1.489,12.409,6.741,3.875,7.718,3.475,18.013-2.882,23.777" transform="translate(-190.281 -100.05)" fill="none" stroke="#8190ae" stroke-linecap="round" stroke-linejoin="round" stroke-width="1.021"/>
      <path id="Path_4521" data-name="Path 4521" d="M333.122,286.173c-10.328-2.049-19.518-7.734-19.886-12.953s5.748-12.009,14.138-16.54" transform="translate(-239.364 -98.313)" fill="none" stroke="#8190ae" stroke-linecap="round" stroke-linejoin="round" stroke-width="1.021"/>
      <path id="Path_4538" data-name="Path 4538" d="M313.022,277.845a90.774,90.774,0,0,0-4.211,18.029l1.713.32v.256h-6.885s-1.441-10.279,2.9-26.915,2.5-63.934-4.243-97.863l-.1-.512c.673,2.274,1.313,4.547,1.889,6.693,3.426,12.921,15.067,57.946,14.314,72.725S316.657,266.653,313.022,277.845Z" transform="translate(-207.031 -149.724)" fill="#e1eaf8"/>
      <path id="Path_4522" data-name="Path 4522" d="M305.58,261.539l1.265-12.089h16.428l1.089,7.013a36.3,36.3,0,0,0-9.383,1.6" transform="translate(-218.371 -102.659)" fill="none" stroke="#8190ae" stroke-linecap="round" stroke-linejoin="round" stroke-width="1.021"/>
      <path id="Path_4523" data-name="Path 4523" d="M321.225,304.469s-1.441-8.006,6.4-23.281,0-51.413-6.4-77.416-12.009-44.832-17.485-45.937,4.611,66.16,5.188,95.333,2.642,36.49,1.6,51.237" transform="translate(-219.381 -157.742)" fill="none" stroke="#8190ae" stroke-linecap="round" stroke-linejoin="round" stroke-width="1.021"/>
      <path id="Path_4524" data-name="Path 4524" d="M242.8,281.43s4.259-9.271,10.84-7.029c5.572,8.6,12.185,18.4,20.623,24.354,8.886,6.261,18.205,10.824,25.811,18.846A127.625,127.625,0,0,1,318.6,344.1c8.935,16.2,16.316,33.512,28.2,47.7,1.009,1.2,2.1,2.834,1.3,4.179s-3.2,1.025-4.8.176c-9.751-5.188-15.707-14.939-22.528-23.233-5.412-6.581-10.792-13.178-16.2-19.742-12.441-15.067-24.93-30.086-37.627-44.929-4.8-5.62-9.607-11.208-14.571-16.7C251.639,290.733,242.577,281.975,242.8,281.43Z" transform="translate(-141.854 -87.869)" fill="none" stroke="#8190ae" stroke-linecap="round" stroke-linejoin="round" stroke-width="1.021"/>
      <path id="Path_4525" data-name="Path 4525" d="M300.8,280.052a15.579,15.579,0,0,0,1.937-4.483c0-1.425-3.2-5.988-3.2-5.988" transform="translate(-187.08 -90.558)" fill="none" stroke="#8190ae" stroke-linecap="round" stroke-linejoin="round" stroke-width="1.021"/>
      <path id="Path_4526" data-name="Path 4526" d="M317.111,286.456s-3.2,1.473-4.371,0-5.22-8.95-5.22-8.95,5.444-7.029,9.607-7.926" transform="translate(-214.242 -90.558)" fill="none" stroke="#8190ae" stroke-linecap="round" stroke-linejoin="round" stroke-width="1.021"/>
      <path id="Path_4535" data-name="Path 4535" d="M300.974,274.05a30.422,30.422,0,0,1-18.573,9.9l.1-9.159Z" transform="translate(-157.868 -87.87)" fill="#e1eaf8"/>
      <path id="Path_4527" data-name="Path 4527" d="M403.765,275.882c-16.012,15.371-80.186,77.56-84.285,77.56-4.707,0,1.937-8.55,5.38-12.937s36.346-33.624,45.441-49.924c5.78-10.408,17.613-17.116,24.466-20.031" transform="translate(-317.42 -89.974)" fill="none" stroke="#8190ae" stroke-linecap="round" stroke-linejoin="round" stroke-width="1.021"/>
      <path id="Path_4528" data-name="Path 4528" d="M261.588,287.106l13.722-.8,7.3-.448,17.2-.993,7.205-.432L322.8,283.5s2.69-14.41-3.362-18.269c-4.1-2.594-16.508-6.2-25.987-8.326a70.2,70.2,0,0,0-10.408-1.777,57.862,57.862,0,0,0-6.4.288c-3.042.256-6.309.656-8.934.993-1.217.16-3.3.192-4.131.32" transform="translate(-146.967 -99.246)" fill="none" stroke="#8190ae" stroke-linecap="round" stroke-linejoin="round" stroke-width="1.021"/>
      <line id="Line_17" data-name="Line 17" x1="1.441" y1="32.632" transform="translate(143.106 186.18)" fill="none" stroke="#8190ae" stroke-linecap="round" stroke-linejoin="round" stroke-width="1.021"/>
      <path id="Path_4529" data-name="Path 4529" d="M276.82,534.526h35.129l-5.86-212.554v-.016l-.176-3.763-.016-.16-.3-7.333" transform="translate(-159.909 -65.838)" fill="none" stroke="#8190ae" stroke-linecap="round" stroke-linejoin="round" stroke-width="1.021"/>
      <path id="Path_4530" data-name="Path 4530" d="M293.92,543.85c.625-29.926,6.245-156.369,6.869-192.139.208-11.208.384-22.128.544-32.135.128-8.774.256-16.908.336-24.017v-.368h0" transform="translate(-177.009 -75.162)" fill="none" stroke="#8190ae" stroke-linecap="round" stroke-linejoin="round" stroke-width="1.021"/>
      <path id="Path_4531" data-name="Path 4531" d="M293.883,274.73c.24,0,.208,5.86.128,16.748" transform="translate(-169.351 -87.462)" fill="none" stroke="#8190ae" stroke-linecap="round" stroke-linejoin="round" stroke-width="1.021"/>
      <path id="Path_4534" data-name="Path 4534" d="M286.614,310.37a79.747,79.747,0,0,0,12.905,1.745V343.29a37.261,37.261,0,0,1-13.45-.769" transform="translate(-162.29 -66.036)" fill="none" stroke="#8190ae" stroke-linecap="round" stroke-linejoin="round" stroke-width="1.021"/>
    </g>
    <g id="Turbine_01" data-name="Turbine #01" transform="translate(234.293 -13)">
      <path id="Path_4539" data-name="Path 4539" d="M221.9,236.967l-5.94-7,5.956,6.533Z" transform="translate(-46.576 99.827)" fill="none"/>
      <path id="Path_4540" data-name="Path 4540" d="M165.209,358.645l21.359-17.421S218.335,309.2,223.4,299.946s12.937-16.54,27.22-22.272l.448-.192a11.208,11.208,0,0,1-5.8-11.064c.7-8.006,13.434-20.687,22.24-25.106l2.1-20.079h3.619l1.089-12.345s-.993-55.256-3.891-90.193-5.46-52.5-7.029-73.8-4.4-17.1,1.393-20.719c4.8-2.994,17.4,31.751,18.349,35.225,5.716,21.488,21.215,64.383,21.215,88.976,0,21.007,3.122,29-5.588,41.87-10.936,16.172-7,29.958-7,29.958l2.85.528,2.322.416,1.057,6.629.769,5.044s11.833-.528,17.613,6.645a120.9,120.9,0,0,1,44.144-1.345c24.77,3.731,46.081,12.3,50.244,16.012s7.333,20.655,4.259,29.333l-54.439,3.2v.272l-30.662,2.53v-.112h-2.482l-14.3.08-.336,1.425-1.6.128,1.6-.128-3.2,3.394c3.811,5.94,10.856,12.425,14.747,16.924a15.387,15.387,0,0,0,5.524,4.019v-.272c4.916,5.076,13.21,13.226,19.79,17.437,5.092,3.2,11.432,7.525,16.46,10.936,6.4,4.964,16.524,16.3,25.618,32.023,9.511,16.46,26.739,44.528,35.9,55.912,4.163,11.8-18.349-4.131-18.349-4.131s-32.119-37.419-38.284-44.832c-2.69-3.2-38.764-43.007-38.764-43.007L314.1,319.656l-18.493-18.525a42.446,42.446,0,0,1-3.459,2.514,5.364,5.364,0,0,1-5.22.24c-2.77-1.793-8.566-14.41-8.566-14.41l-7.718-1.969h-.176l-5.012-1.3-2.4,2.77L158.532,374.72l-4,.176,1.713-5.188Z" transform="translate(-154.452 -23.996)" fill="#fff"/>
      <path id="Path_4541" data-name="Path 4541" d="M237.226,246.585l3.25,74.1,5.06,115.235,5.8,142.04H195.549l7.525-369.212Z" transform="translate(-43.441 87.071)" fill="#fff"/>
      <path id="Path_4542" data-name="Path 4542" d="M220.1,218.677s-1.7-1.857-4.179-4.707c0,0,1.6,1.809,4.179,4.435Z" transform="translate(-44.695 90.209)" fill="none"/>
      <path id="Path_4543" data-name="Path 4543" d="M229.532,221.923a175.209,175.209,0,0,1-13.562-17.469l.544-2.21.336-1.425h16.78v25.618C231.181,223.685,229.532,221.923,229.532,221.923Z" transform="translate(-58.306 82.303)" fill="none"/>
      <path id="Path_4544" data-name="Path 4544" d="M203.12,216.894V191.42l30.662-2.53,2.386,53.959s1.2.881,3.2,2.418c-5.028-3.41-11.384-7.67-16.46-10.92C216.33,230.136,208.02,221.97,203.12,216.894Z" transform="translate(-43.471 75.132)" fill="#fff"/>
      <path id="Path_4545" data-name="Path 4545" d="M216.256,200.856l14.3-.08,2.482-.016v.112l-17.116,1.409Z" transform="translate(-57.632 82.267)" fill="none"/>
      <path id="Path_4546" data-name="Path 4546" d="M229.532,221.917a175.212,175.212,0,0,1-13.562-17.469l.544-2.21,17.116-1.409v25.747S231.982,224.719,229.532,221.917Z" transform="translate(-58.306 82.309)" fill="none"/>
      <path id="Path_4547" data-name="Path 4547" d="M219.781,204.72l3.491,2,3.33,1.361,3.859.977h.176l7.718,1.969s5.8,12.665,8.566,14.41c1.745,1.121,7.638-.849,8.982-1.6l-5.108-6.277s1.425-9.607,14.09-8.454l4.707,7.221s5.46-8.9,5.22-10.151,7.525-9.431,8.726-21.44-4.723-35.466-35.482-29.093c0,0,9.943.961,13.978,17.357S241.7,201.182,219.781,204.72Z" transform="translate(-114.459 54.498)" fill="#e1eaf8"/>
      <path id="Path_4548" data-name="Path 4548" d="M232.829,262.5,203.56,232.076l2.562-17.2,24.866,28.709Z" transform="translate(-37.634 90.756)" fill="#e1eaf8"/>
      <path id="Path_4549" data-name="Path 4549" d="M233.38,176.033V172.11L216.6,188.634l1.361,10.936v27.524A196.654,196.654,0,0,0,233.2,240.143C232.836,202.484,232.74,177.282,233.38,176.033Z" transform="translate(-59.064 65.044)" fill="#e1eaf8"/>
      <path id="Path_4550" data-name="Path 4550" d="M213.18,595.243h27.348c-.688-37.707-6.645-260.845-8.006-374L220.481,209.7Z" transform="translate(-60.736 87.642)" fill="#e1eaf8"/>
      <path id="Path_4551" data-name="Path 4551" d="M256.221,280.471c4.227,2.1,109.279-89.585,109.279-89.585l2.146-1.073A38.636,38.636,0,0,1,350.737,182c-14.282,5.732-25.01,18.477-29.974,27.636s-32.808,32.824-32.808,32.824L261.7,268.254S252.01,278.358,256.221,280.471Z" transform="translate(-255.07 70.99)" fill="#e1eaf8"/>
      <path id="Path_4552" data-name="Path 4552" d="M169.887,168.476s78.265-4.611,86.639-.721,8.15,23.425,5.6,30.422l-100.12,5.86v-4.627l-.24-1.249S172.049,190.909,169.887,168.476Z" transform="translate(-1.576 61.489)" fill="#e1eaf8"/>
      <path id="Path_4553" data-name="Path 4553" d="M159.56,189.567s11.9,35.866,33.512,44.688c39.485,16.14,55.72,50.132,87.872,88.672,0,0-22.881-37.915-35.626-58.106-18.846-29.894-39.052-38.428-48.419-44.048a89.217,89.217,0,0,1-31.174-32.023Z" transform="translate(-15.298 75.047)" fill="#e1eaf8"/>
      <path id="Path_4554" data-name="Path 4554" d="M248.654,174.325c-8.006,27.412-4.8,44.7-4.8,44.7h11.384v-.416l-2.85-.528s-3.41-7.605,5.46-25.01c4.243-8.326,5.716-5.956,7.477-30.422S245.468,51.66,231.7,27.739C230.017,24.5,263.545,123.328,248.654,174.325Z" transform="translate(-115.184 -21.792)" fill="#e1eaf8"/>
      <path id="Path_4555" data-name="Path 4555" d="M219.879,154.47c9.207.336,16.284,2.482,20.671,11.208,6.4,12.809,5.78,29.91-4.8,39.485" transform="translate(-75.617 54.44)" fill="none" stroke="#8190ae" stroke-linecap="round" stroke-linejoin="round" stroke-width="1.021"/>
      <path id="Path_4556" data-name="Path 4556" d="M281.229,208.265c-17.2-3.394-32.488-12.809-33.112-21.52s9.607-19.95,23.537-27.476" transform="translate(-157.334 57.325)" fill="none" stroke="#8190ae" stroke-linecap="round" stroke-linejoin="round" stroke-width="1.021"/>
      <path id="Path_4557" data-name="Path 4557" d="M235.37,167.259l2.1-20.078H264.8l1.825,11.672s-5.2-.176-15.627,2.642" transform="translate(-122.363 50.057)" fill="none" stroke="#8190ae" stroke-linecap="round" stroke-linejoin="round" stroke-width="1.021"/>
      <path id="Path_4558" data-name="Path 4558" d="M259.909,221.184s-2.146-10.7,9.463-31.271.128-69.106-9.607-104.075-17.917-60.188-26.1-61.741,6.885,88.912,7.75,128.093,3.939,49.027,2.322,68.93" transform="translate(-123.38 -23.947)" fill="none" stroke="#8190ae" stroke-linecap="round" stroke-linejoin="round" stroke-width="1.021"/>
      <path id="Path_4559" data-name="Path 4559" d="M154.721,197.338s5.54-11.208,14.09-8.454c7.221,10.343,15.8,22.1,26.787,29.253,11.528,7.525,23.633,13.017,33.5,22.64a154.016,154.016,0,0,1,24.017,31.831c11.592,19.486,21.183,40.269,36.635,57.306,1.3,1.441,2.722,3.41,1.681,5.028s-4.211,1.217-6.245.224c-12.665-6.245-20.415-17.965-29.269-27.924-7.029-7.894-14.01-15.819-21.039-23.713-16.156-18.109-32.375-36.154-48.867-53.975-6.229-6.741-12.505-13.466-18.91-20.079C166.2,208.546,154.433,197.978,154.721,197.338Z" transform="translate(-18.385 74.866)" fill="none" stroke="#8190ae" stroke-linecap="round" stroke-linejoin="round" stroke-width="1.021"/>
      <path id="Path_4560" data-name="Path 4560" d="M227.346,198.083s3.09-5.076,3.2-7.445-5.22-9.927-5.22-9.927" transform="translate(-70.211 70.214)" fill="none" stroke="#8190ae" stroke-linecap="round" stroke-linejoin="round" stroke-width="1.021"/>
      <path id="Path_4561" data-name="Path 4561" d="M254.58,208.746s-5.268,2.45-7.269,0-8.71-14.875-8.71-14.875,9.095-11.672,16.012-13.162" transform="translate(-115.521 70.214)" fill="none" stroke="#8190ae" stroke-linecap="round" stroke-linejoin="round" stroke-width="1.021"/>
      <path id="Path_4562" data-name="Path 4562" d="M367.14,190.708c-20.7,18.205-103.5,89.665-108.879,89.665-6.1,0,2.514-10.119,7-15.323s47.154-39.757,58.939-59.067a60.444,60.444,0,0,1,28.452-23.713" transform="translate(-256.15 71.152)" fill="none" stroke="#8190ae" stroke-linecap="round" stroke-linejoin="round" stroke-width="1.021"/>
      <path id="Path_4565" data-name="Path 4565" d="M179.108,157.193c6.613,2.114,32.343,10.584,35.129,15.259,3.875,6.517,3.7,25.619,3.442,33.624l12.025-.7c.224-9.8.112-28.4-3.843-34.985-3.2-3.843-11.048-7.686-18.766-10.76a115.78,115.78,0,0,0-17.309-2.946A96.523,96.523,0,0,0,179.108,157.193Z" transform="translate(4.575 55.767)" fill="#acbad6"/>
      <path id="Path_4566" data-name="Path 4566" d="M204.59,158.975s15.451,7.013,18.173,14.538c2.354,6.245,1.6,27.22,1.329,34.169l12.137-.737c0-8.742-.24-29.461-1.473-34.841-1.6-6.869-23.361-14.074-23.361-14.074l-5.2.7Z" transform="translate(-42.683 56.58)" fill="#acbad6"/>
      <path id="Path_4563" data-name="Path 4563" d="M162.12,209.861l22.849-1.393,12.137-.737,28.629-1.6,12.025-.7,26.275-1.6s4.483-24.017-5.6-30.422c-6.821-4.291-27.476-10.279-43.231-13.834a115.775,115.775,0,0,0-17.309-2.946,96.511,96.511,0,0,0-10.68.464c-5.076.448-10.52,1.1-14.891,1.681-2.033.24-5.492.3-6.885.512" transform="translate(-3.48 55.73)" fill="none" stroke="#8190ae" stroke-linecap="round" stroke-linejoin="round" stroke-width="1.021"/>
      <line id="Line_18" data-name="Line 18" x1="1.569" y1="36.01" transform="translate(189.719 265.094)" fill="none" stroke="#8190ae" stroke-linecap="round" stroke-linejoin="round" stroke-width="1.021"/>
      <path id="Path_4564" data-name="Path 4564" d="M203.129,208.75c-1.265,108.078-7.189,387.064-7.189,387.064h54.952l-13.61-349.229" transform="translate(-43.496 87.071)" fill="none" stroke="#8190ae" stroke-linecap="round" stroke-linejoin="round" stroke-width="1.021"/>
      <path id="Path_4567" data-name="Path 4567" d="M214.029,259.43a130.588,130.588,0,0,0,21.488,2.914v51.781a61.773,61.773,0,0,1-22.416-1.281" transform="translate(-55.597 117.537)" fill="none" stroke="#8190ae" stroke-linecap="round" stroke-linejoin="round" stroke-width="1.021"/>
    </g>
    <g id="Plants" transform="translate(203.765 578.419)">
      <path id="Path_4569" data-name="Path 4569" d="M177.079,494.557c-1.381-8.454-2.031-24.017,8.672-32.5,15.333-12.089,38.322,7.541,44.07,7.541s7.677-12.073,24.919-22.656,38.322,3.026,49.817,0-9.586-49.844,22.989-51.349,44.07,63.438,67.019,63.438,26.828-12.089,49.817-1.505c18.014,8.278,27.782,28.6,31.174,37.035Z" transform="translate(-176.32 -395.564)" fill="#acbad6"/>
      <line id="Line_19" data-name="Line 19" y1="24.962" x2="15.355" transform="translate(243.839 73.007)" fill="none" stroke="#8190ae" stroke-linecap="round" stroke-linejoin="round" stroke-width="1"/>
      <line id="Line_20" data-name="Line 20" x1="8.102" y1="76.327" transform="translate(156.396 20.985)" fill="none" stroke="#8190ae" stroke-linecap="round" stroke-linejoin="round" stroke-width="1"/>
      <line id="Line_21" data-name="Line 21" x1="7.91" y1="29.013" transform="translate(93.295 68.956)" fill="none" stroke="#8190ae" stroke-linecap="round" stroke-linejoin="round" stroke-width="1"/>
      <line id="Line_22" data-name="Line 22" x1="7.83" y1="18.894" transform="translate(21.762 79.075)" fill="none" stroke="#8190ae" stroke-linecap="round" stroke-linejoin="round" stroke-width="1"/>
      <path id="Path_4571" data-name="Path 4571" d="M191.58,441.58l8.1,14.186,18.91-7.429" transform="translate(50.049 -367.901)" fill="none" stroke="#8190ae" stroke-linecap="round" stroke-linejoin="round" stroke-width="1"/>
      <path id="Path_4572" data-name="Path 4572" d="M263.648,412.47,254.2,429.362,241.36,413.815" transform="translate(-95.015 -382.76)" fill="none" stroke="#8190ae" stroke-linecap="round" stroke-linejoin="round" stroke-width="1"/>
      <path id="Path_4573" data-name="Path 4573" d="M262.3,429.35l-12.169,14.859-12.153-9.463" transform="translate(-88.694 -375.253)" fill="none" stroke="#8190ae" stroke-linecap="round" stroke-linejoin="round" stroke-width="1"/>
      <line id="Line_23" data-name="Line 23" x1="16.204" y1="9.447" transform="translate(80.18 72.334)" fill="none" stroke="#8190ae" stroke-linecap="round" stroke-linejoin="round" stroke-width="1"/>
      <line id="Line_24" data-name="Line 24" y1="20.943" x2="8.118" transform="translate(98.469 66.25)" fill="none" stroke="#8190ae" stroke-linecap="round" stroke-linejoin="round" stroke-width="1"/>
      <line id="Line_25" data-name="Line 25" y1="13.514" x2="4.067" transform="translate(25.813 75.696)" fill="none" stroke="#8190ae" stroke-linecap="round" stroke-linejoin="round" stroke-width="1"/>
      <line id="Line_26" data-name="Line 26" x1="11.48" y1="4.723" transform="translate(15.694 87.193)" fill="none" stroke="#8190ae" stroke-linecap="round" stroke-linejoin="round" stroke-width="1"/>
    </g>
    <g id="Clouds" transform="translate(36.749 42.029)">
      <path id="Path_4574" data-name="Path 4574" d="M370.412,176.207H304.381s-3.2-9.735,8.5-16.124,17.052-1.073,21.311-6.4-11.72-19.214,20.239-33.032c0,0,2.146-29.942,45.841-30.918s32.023,29.942,43.68,37.435,14.971-4.275,26.659,3.2,6.4,22.416,16.012,24.5,22.416-9.607,34.1-2.114S532.465,166.6,537.8,166.6s16.012-4.275,22.416,0,13.866,9.607,13.866,9.607H383.91" transform="translate(-303.98 -89.706)" fill="none" stroke="#acbad6" stroke-width="1"/>
      <path id="Path_4575" data-name="Path 4575" d="M215.07,281.19H63.953s4.147-2.994,7.782-5.38,9.607,0,12.585,0,3.026-3.587,9.607-7.766,13.738,2.338,19.1,1.2,2.418-9.607,8.95-13.738,8.358,2.4,14.939-1.793,0-21.5,24.482-20.959,25.619,17.324,25.619,17.324c17.917,7.75,8.95,15.531,11.352,18.509s5.38,0,11.929,3.571S215.07,281.19,215.07,281.19Z" transform="translate(399.51 159.586)" fill="none" stroke="#acbad6" stroke-width="1"/>
    </g>
    <g id="Wind" transform="translate(-22.685 310.501)">
      <path id="Path_4576" data-name="Path 4576" d="M520.6,197.08a141.622,141.622,0,0,0-39.036,4.691c-17.885,4.707-35.033,12.5-53.351,15s-39.132-1.6-50.372-16.236" transform="translate(-377.84 -197.053)" fill="none" stroke="#acbad6" stroke-width="1"/>
      <path id="Path_4577" data-name="Path 4577" d="M390.681,221.123C374.893,207.705,355.2,200.18,334.64,197.65" transform="translate(-178.751 -196.694)" fill="none" stroke="#acbad6" stroke-width="1"/>
      <path id="Path_4578" data-name="Path 4578" d="M478.777,230.144c-12.313-1.6-23.937-6.661-31.367-16.364" transform="translate(-447.41 -186.997)" fill="none" stroke="#acbad6" stroke-width="1"/>
      <path id="Path_4579" data-name="Path 4579" d="M506.556,236.033c-29.045-24.69-71.348-29.445-108.206-19.726-17.885,4.707-35.033,12.505-53.351,15a74.076,74.076,0,0,1-10.36.688" transform="translate(-294.627 -188.307)" fill="none" stroke="#acbad6" stroke-width="1"/>
      <path id="Path_4580" data-name="Path 4580" d="M494.972,238.744a145.507,145.507,0,0,1-24.129,5.812c-18.349,2.466-39.164-1.553-50.372-16.236" transform="translate(-420.47 -178.257)" fill="none" stroke="#acbad6" stroke-width="1"/>
      <path id="Path_4581" data-name="Path 4581" d="M436.008,226.42a142.825,142.825,0,0,0-25.17,4.275c-8.214,2.162-16.268,4.98-24.338,7.621" transform="translate(-307.115 -179.399)" fill="none" stroke="#acbad6" stroke-width="1"/>
      <path id="Path_4582" data-name="Path 4582" d="M399.055,250.5c-17.9-15.211-40.83-22.865-64.415-24.21" transform="translate(-187.126 -179.477)" fill="none" stroke="#acbad6" stroke-width="1"/>
    </g>
  </g>
</svg>
