<svg xmlns="http://www.w3.org/2000/svg" xmlns:xlink="http://www.w3.org/1999/xlink" width="626" height="541" viewBox="0 0 626 541">
  <defs>
    <clipPath id="clip-path">
      <rect id="Rectangle_4062" data-name="Rectangle 4062" width="626" height="541" transform="translate(552 19598)" fill="#fff" stroke="#707070" stroke-width="1"/>
    </clipPath>
  </defs>
  <g id="illustration_home_wind_energy_broker" transform="translate(-552 -19598)" clip-path="url(#clip-path)">
    <g id="Illustration" transform="translate(576.187 19612)">
      <g id="Background" transform="translate(42.301 102.754)">
        <path id="Path_43465" data-name="Path 43465" d="M105.06,405.944c2.2,3.741,4.437,7.394,6.729,10.973,1.479,2.233,2.884,4.436,4.348,6.625q3.682,5.457,7.483,10.633l.251.325c1.139,1.568,2.322,3.12,3.475,4.644s2.1,2.721,3.165,4.052c.458.562.9,1.139,1.361,1.686l.562.71q1.3,1.642,2.662,3.239c1.2,1.479,2.381,2.839,3.594,4.244s2.2,2.514,3.313,3.756c.577.651,1.139,1.272,1.73,1.908,1.124,1.257,2.277,2.484,3.431,3.712s2.662,2.81,4.008,4.17l.1.118c1.3,1.3,2.6,2.618,3.9,3.889,1.937,1.893,3.875,3.742,5.841,5.56,2.44,2.263,4.91,4.437,7.394,6.625a1.047,1.047,0,0,1,.192.177c2.869,2.47,5.767,4.851,8.7,7.172q6.773,5.383,13.724,10.234,2.307,1.612,4.658,3.194c3.061,2.07,6.167,4.052,9.3,5.915l.281.177c1.479.917,3.032,1.834,4.57,2.736l.311.163q4.688,2.78,9.479,5.309L223,519.667l1.967,1.006c1.479.769,2.958,1.479,4.525,2.248,3.313,1.612,6.625,3.135,9.982,4.614,1.686.725,3.372,1.479,5.058,2.144s3.372,1.39,5.087,2.056,3.387,1.316,5.087,1.952,3.15,1.154,4.732,1.715l1.715.591c1.272.459,2.558.873,3.845,1.316,1.73.562,3.461,1.124,5.191,1.656h.1q7.394,2.307,14.789,4.185c5.22,1.361,10.485,2.529,15.765,3.579h0c74.386,14.936,153.179,2.75,218.766-27.566,1.7-.8,3.387-1.6,5.058-2.44l2.5-1.272c2.144-1.094,4.274-2.263,6.374-3.475.961-.532,1.922-1.094,2.869-1.656s1.479-.887,2.248-1.361,1.272-.769,1.893-1.183,1.479-.887,2.129-1.346q6.773-4.436,13.147-9.317c.813-.621,1.627-1.257,2.411-1.908l1.656-1.331,2.056-1.715c1.479-1.227,2.958-2.47,4.318-3.756.429-.37.828-.74,1.257-1.139s1.242-1.124,1.849-1.7q3.9-3.653,7.572-7.513l1.3-1.39c3.283-3.5,6.4-7.143,9.376-10.87.8-.976,1.479-1.967,2.307-2.958,2.411-3.12,4.688-6.33,6.862-9.6.606-.932,1.227-1.863,1.819-2.8,2.07-3.239,4.008-6.507,5.915-9.849.591-1.065,1.168-2.144,1.73-3.224s1.006-1.937,1.479-2.958q2.632-5.235,4.895-10.663c.384-.932.769-1.878,1.139-2.839a162.545,162.545,0,0,0,5.546-16.5c.237-.858.458-1.715.7-2.558a1.466,1.466,0,0,1,0-.251c.163-.666.34-1.3.488-1.967.236-.991.473-1.967.7-2.958s.473-2.159.7-3.224c.266-1.331.532-2.691.754-4.052s.4-2.322.577-3.5.355-2.411.518-3.623c4.052-31.145-2.144-66.031-18.929-93.493a114.228,114.228,0,0,0-7.572-10.943A104,104,0,0,0,586.426,266a3.847,3.847,0,0,0-.518-.473A95.186,95.186,0,0,0,564.346,250.5l-5.472-2.751c-3.52-1.745-6.921-3.416-10.263-5l-3.061-1.479-.458-.222q-3.475-1.612-6.847-3.106-6.3-2.839-12.215-5.294c-.991-.429-1.982-.828-2.958-1.227-2.958-1.227-5.915-2.411-8.74-3.52-2.159-.858-4.289-1.686-6.4-2.47l-.739-.3c-1.893-.71-3.756-1.479-5.6-2.07-7.291-2.721-14.256-5.176-21.029-7.557-36.217-12.777-67.465-23.9-117.11-61.446C318.074,119.8,265.234,90.7,206.465,95.681c-74.209,6.3-138.169,50.163-145.489,127.6C55.371,282.593,75.247,355.071,105.06,405.944Z" transform="translate(-60.029 -95.122)" fill="#fff"/>
        <path id="Path_43466" data-name="Path 43466" d="M72.68,329.08c39.707,54.008,91.156,87.637,146.569,104.851h.1q7.394,2.307,14.788,4.185,7.823,2.026,15.765,3.579h0c74.386,14.922,153.164,2.751,218.766-27.581a186.616,186.616,0,0,0,86.587-81.781c-18.974-13.576-54.422-26.457-115.232-10-104.288,28.216-184.22,94.853-253.637,46.273C137.247,334.271,101.237,322.322,72.68,329.08Z" transform="translate(-9.06 9.972)" fill="#fff"/>
      </g>
      <g id="Turbine_02" data-name="Turbine #02" transform="translate(146.18 184.835)">
        <path id="Path_43467" data-name="Path 43467" d="M248.4,390.511l.089-.1.34-.458c.222-.281.414-.547.621-.784h0l6.551-6.64.148-.133,22.035-22.316a1.48,1.48,0,0,0,.207-.237c1.124-1.331,9.376-11.121,12.91-16.607a1.108,1.108,0,0,0,.1-.177,16.175,16.175,0,0,0,.887-1.479,15.85,15.85,0,0,1,1.834-2.618.783.783,0,0,0,.148-.177,61.713,61.713,0,0,1,15.6-12.274l.281-.133a35.973,35.973,0,0,1,3.608-1.73l.251-.1a6.211,6.211,0,0,1-3.224-6.152,3.193,3.193,0,0,1,0-.37.843.843,0,0,1,0-.266v-.222c.932-3.712,5.62-8.74,9.8-11.624l1.05-.7q.452-.3.932-.547l.4-.222h0l1.154-11.151h2.026l.592-6.862s0-2.706-.148-7.025v-.7c-.266-10.352-.873-29.03-1.982-42.369h0c-1.582-19.432-3.9-41.023-4.777-52.869v-.37a.97.97,0,0,0,0-.207c0-.68-.1-1.346-.148-2.011s-.1-1.183-.148-1.76c-.754-8.489-1.671-16.267-.34-19.7a2.958,2.958,0,0,1,1.109-1.479c2.691-1.686,6.906,9.124,10.086,19.7h0c.606,2.07,1.183,4.141,1.7,6.093.074.266.148.518.237.8,2.292,8.725,7.823,30.242,10.9,47.323a99.283,99.283,0,0,1,2.115,19.122v.074c-.666,13.665-1.612,14.788-4.954,25.14a86,86,0,0,0-3.815,16.489h0l1.6.3,1.272.237,1.035,6.492a15.587,15.587,0,0,1,6.729,1.361,8.475,8.475,0,0,1,3.046,2.307h0l1.479-.325h0a67.745,67.745,0,0,1,10.751-1.139,71.7,71.7,0,0,1,12.112.754h.133c12.141,1.863,22.759,5.782,26.619,8.119a3.347,3.347,0,0,1,.384.237h0a2.193,2.193,0,0,1,.4.281.62.62,0,0,1,.192.163l.133.1a.769.769,0,0,1,.163.148l.148.163c1.227,1.479,2.233,4.895,2.6,8.43h0a20.867,20.867,0,0,1-.236,6.433,5.422,5.422,0,0,1-.3,1.006l-14.567.858-6.67.4-8.991.518h0l1.331,30.124s3.7,2.706,8.134,6.522a87.415,87.415,0,0,1,9.8,9.775c.266.3.488.606.739.932l.917,1.227a1.761,1.761,0,0,1,.237.34,205.9,205.9,0,0,1,10.973,18.619c3.653,6.744,6.817,12.792,8.148,14.655,1.568,2.2,4.437,7.882,7.394,13.073,2.351,4.215,4.732,8.134,6.448,9.6h0c3.8,3.254,6.137,6.758,4.2,7.66s-5.087.37-10.884-4.437a.605.605,0,0,1-.192-.148c-5.738-4.732-20.379-24.194-21.281-25.392s-2.1-2.588-3.18-3.875c-.429-.532-.872-1.094-1.331-1.627-2.618-3.15-5.915-7.187-8.873-10.707-.725-.917-1.479-1.819-2.248-2.736q-.651-.8-1.331-1.6c-.961-1.183-1.937-2.351-2.958-3.52-2.958-3.446-3.668-2.958-3.668-2.958l.222,5.4.163,3.475h0L382.8,590.244c-4.836-.961-9.657,1.228-14.448,0-4.555-1.168-13.5,1.405-18,0h-.1l7.261-229.458v-.355l-.207-.207-3.209-3.549L337.53,338.455a.532.532,0,0,0-.163-.148,5.923,5.923,0,0,1-.754.458,2.958,2.958,0,0,1-2.884.148c-1.479-1.006-4.762-8.045-4.762-8.045l-4.274-1.094h-.1l-2.085-.532-1.789,1.671-10.884,10.574-.458.429-60.293,56.034-.089.074c-.37.429-3.8,4.141-6.019,3.046C241.154,400.2,246.108,393.439,248.4,390.511Zm107.024-47.545.946,1.08.118.133,1.183,1.331h.074V331.135h-9.3l-.429,1.76v.251l.872,1.3a106.16,106.16,0,0,0,6.536,8.518Z" transform="translate(-242.579 -157.772)" fill="#fff"/>
        <path id="Path_43468" data-name="Path 43468" d="M296.217,281.685l1.982,3.549,1.789-1.627,2.144.547h.1l4.274,1.094s3.209,7.039,4.762,8.045a2.958,2.958,0,0,0,2.884-.148l-.991-2.632a9.79,9.79,0,0,1,10-6.492l.68,4.244s2.958-4.954,2.884-5.649,4.185-5.235,4.851-11.9S328.958,251,311.892,254.533c0,0,5.516.532,7.749,9.642S308.314,279.733,296.217,281.685Z" transform="translate(-219.913 -111.723)" fill="#e1eaf8"/>
        <path id="Path_43469" data-name="Path 43469" d="M296.578,326.754,280.34,309.836l1.553-10.456,13.665,16.859Z" transform="translate(-161.357 -89.963)" fill="#e1eaf8"/>
        <path id="Path_43470" data-name="Path 43470" d="M297.482,266.6V264.41l-9.3,9.184.754,6.078v15.306c2.425,2.425,6.536,5.738,8.459,7.246C297.186,281.3,297.186,267.294,297.482,266.6Z" transform="translate(-173.855 -106.708)" fill="#e1eaf8"/>
        <path id="Path_43471" data-name="Path 43471" d="M286.59,524.779h.1c4.437,1.4,13.443-1.168,18,0-.488-27.965-1.139-141.689-1.656-176.6-.148-10.056-.281-19.905-.414-29.192v-2.13c0-3.978-.1-7.853-.148-11.594v-.074l-1.168-1.331-2.056-2.351-5.368-6.152h0Z" transform="translate(-178.713 -91.893)" fill="#e1eaf8"/>
        <path id="Path_43472" data-name="Path 43472" d="M316.574,347.062c2.351,1.168,6.049-3.076,6.049-3.076L396.255,275.6l2.144.547a35.2,35.2,0,0,1-11.032-5.5c-7.927,3.194-18.722,11.831-21.473,16.933s-14.034,18.4-14.034,18.4l-28.808,29.163S314.238,345.894,316.574,347.062Z" transform="translate(-316.18 -103.72)" fill="#e1eaf8"/>
        <path id="Path_43473" data-name="Path 43473" d="M265.874,262.12s43.419-2.558,48.063-.4,4.51,13.014,3.106,16.874l-55.531,3.268v-2.573l-.133-.7S267.058,274.586,265.874,262.12Z" transform="translate(-154.641 -108.411)" fill="#e1eaf8"/>
        <path id="Path_43474" data-name="Path 43474" d="M259.81,274.95s8.015,17.347,18.589,24.845,31.278,21.783,49.1,43.2c0,0-9.243-20.364-19.447-28.823s-23.957-16.578-28.1-20.941-14.789-18.959-14.789-18.959Z" transform="translate(-161.915 -101.987)" fill="#e1eaf8"/>
        <path id="Path_43475" data-name="Path 43475" d="M302.288,171.619c6.226,31.337,7.927,75.022,3.919,90.387s-2.677,24.859-2.677,24.859h6.359v-.237l-1.582-.3a83.839,83.839,0,0,1,3.889-16.652c3.357-10.352,4.289-11.505,4.969-25.14s-10.056-55.235-13.221-67.169c-.532-1.982-1.124-4.082-1.745-6.182Z" transform="translate(-214.302 -151.347)" fill="#acbad6"/>
        <path id="Path_43476" data-name="Path 43476" d="M271.792,255.381c3.682,1.168,17.953,5.915,19.491,8.474,2.144,3.623,2.056,14.256,1.923,18.722l6.655-.4c.133-5.442.074-15.794-2.115-19.447-1.789-2.13-6.137-4.274-10.352-5.915a64.839,64.839,0,0,0-9.613-1.641,53.435,53.435,0,0,0-5.989.207Z" transform="translate(-152.04 -111.137)" fill="#acbad6"/>
        <path id="Path_43477" data-name="Path 43477" d="M287.1,256.462s8.577,3.919,10.13,8.089c1.3,3.475.9,15.143.725,18.988l6.744-.414c0-4.851-.148-16.371-.828-19.373-.858-3.815-12.955-7.823-12.955-7.823l-2.884.4Z" transform="translate(-179.475 -110.769)" fill="#acbad6"/>
        <path id="Path_43478" data-name="Path 43478" d="M296.272,253.79c5.1.192,9.036,1.375,11.461,6.226,3.579,7.128,3.209,16.637-2.662,21.961" transform="translate(-198.377 -111.794)" fill="none" stroke="#8190ae" stroke-linecap="round" stroke-linejoin="round" stroke-width="1.021"/>
        <path id="Path_43479" data-name="Path 43479" d="M331.6,283.92c-9.539-1.893-18.027-7.143-18.367-11.964s5.309-11.091,13.058-15.277" transform="translate(-245.006 -110.41)" fill="none" stroke="#8190ae" stroke-linecap="round" stroke-linejoin="round" stroke-width="1.021"/>
        <path id="Path_43480" data-name="Path 43480" d="M312.2,269.7a83.84,83.84,0,0,0-3.889,16.652l1.582.3v.237h-6.359s-1.331-9.494,2.677-24.86,2.307-59.051-3.919-90.387l-.089-.473c.621,2.1,1.213,4.2,1.745,6.182,3.165,11.934,13.916,53.52,13.221,67.169S315.552,259.359,312.2,269.7Z" transform="translate(-214.301 -151.361)" fill="#e1eaf8"/>
        <path id="Path_43481" data-name="Path 43481" d="M305.58,260.615l1.168-11.165h15.173l1.006,6.477a33.524,33.524,0,0,0-8.666,1.479" transform="translate(-225.032 -113.872)" fill="none" stroke="#8190ae" stroke-linecap="round" stroke-linejoin="round" stroke-width="1.021"/>
        <path id="Path_43482" data-name="Path 43482" d="M319.765,293.267s-1.331-7.394,5.915-21.5,0-47.486-5.915-71.5-11.091-41.408-16.149-42.428,4.259,61.106,4.791,88.051,2.44,33.7,1.479,47.323" transform="translate(-225.701 -157.748)" fill="none" stroke="#8190ae" stroke-linecap="round" stroke-linejoin="round" stroke-width="1.021"/>
        <path id="Path_43483" data-name="Path 43483" d="M242.8,280.867s3.934-8.563,10.012-6.492c5.146,7.941,11.254,16.992,19.048,22.493,8.208,5.782,16.815,10,23.839,17.406a117.876,117.876,0,0,1,17.11,24.475c8.252,14.966,15.069,30.952,26.043,44.055.932,1.109,1.937,2.618,1.2,3.86s-2.958.947-4.437.163c-9.006-4.792-14.507-13.8-20.807-21.458-5-6.078-9.967-12.171-14.966-18.234-11.491-13.916-23.026-27.788-34.753-41.5-4.437-5.191-8.873-10.352-13.458-15.424C250.964,289.459,242.594,281.37,242.8,280.867Z" transform="translate(-149.564 -102.091)" fill="none" stroke="#8190ae" stroke-linecap="round" stroke-linejoin="round" stroke-width="1.021"/>
        <path id="Path_43484" data-name="Path 43484" d="M300.708,279.252a14.39,14.39,0,0,0,1.789-4.141c0-1.316-2.958-5.531-2.958-5.531" transform="translate(-195.671 -104.233)" fill="none" stroke="#8190ae" stroke-linecap="round" stroke-linejoin="round" stroke-width="1.021"/>
        <path id="Path_43485" data-name="Path 43485" d="M316.378,285.167s-2.958,1.361-4.037,0-4.821-8.267-4.821-8.267,5.028-6.492,8.873-7.32" transform="translate(-221.367 -104.233)" fill="none" stroke="#8190ae" stroke-linecap="round" stroke-linejoin="round" stroke-width="1.021"/>
        <path id="Path_43486" data-name="Path 43486" d="M299.555,274.05a28.1,28.1,0,0,1-17.155,9.139l.089-8.459Z" transform="translate(-167.38 -102.092)" fill="#e1eaf8"/>
        <path id="Path_43487" data-name="Path 43487" d="M397.2,275.475c-14.789,14.2-74.061,71.636-77.847,71.636-4.348,0,1.789-7.9,4.969-11.949s33.57-31.056,41.97-46.111c5.339-9.613,16.267-15.809,22.6-18.5" transform="translate(-317.453 -103.768)" fill="none" stroke="#8190ae" stroke-linecap="round" stroke-linejoin="round" stroke-width="1.021"/>
        <path id="Path_43488" data-name="Path 43488" d="M261.588,284.664l12.674-.739,6.744-.414,15.883-.917,6.655-.4,14.581-.858s2.485-13.31-3.106-16.874c-3.786-2.4-15.247-5.723-24-7.69a64.836,64.836,0,0,0-9.613-1.641,53.442,53.442,0,0,0-5.915.266c-2.81.237-5.827.606-8.252.917-1.124.148-3.046.178-3.815.3" transform="translate(-155.722 -111.153)" fill="none" stroke="#8190ae" stroke-linecap="round" stroke-linejoin="round" stroke-width="1.021"/>
        <line id="Line_27" data-name="Line 27" x1="1.331" y1="30.139" transform="translate(132.174 171.958)" fill="none" stroke="#8190ae" stroke-linecap="round" stroke-linejoin="round" stroke-width="1.021"/>
        <path id="Path_43489" data-name="Path 43489" d="M276.82,517.429h32.446l-5.413-196.317V321.1l-.163-3.475-.015-.148-.281-6.773" transform="translate(-168.84 -84.542)" fill="none" stroke="#8190ae" stroke-linecap="round" stroke-linejoin="round" stroke-width="1.021"/>
        <path id="Path_43490" data-name="Path 43490" d="M293.92,524.856c.577-27.64,5.768-144.425,6.344-177.462.192-10.352.355-20.438.5-29.681.118-8.1.237-15.617.311-22.183v-.34h0" transform="translate(-185.94 -91.969)" fill="none" stroke="#8190ae" stroke-linecap="round" stroke-linejoin="round" stroke-width="1.021"/>
        <path id="Path_43491" data-name="Path 43491" d="M293.883,274.73c.222,0,.192,5.413.118,15.469" transform="translate(-178.864 -101.767)" fill="none" stroke="#8190ae" stroke-linecap="round" stroke-linejoin="round" stroke-width="1.021"/>
        <path id="Path_43492" data-name="Path 43492" d="M286.573,310.37a73.651,73.651,0,0,0,11.92,1.612v28.793a34.415,34.415,0,0,1-12.422-.71" transform="translate(-171.745 -84.7)" fill="none" stroke="#8190ae" stroke-linecap="round" stroke-linejoin="round" stroke-width="1.021"/>
      </g>
      <g id="Turbine_01" data-name="Turbine #01" transform="translate(214.663 -13)">
        <path id="Path_43493" data-name="Path 43493" d="M221.447,236.433l-5.487-6.463,5.5,6.034Z" transform="translate(-59.515 74.635)" fill="none"/>
        <path id="Path_43494" data-name="Path 43494" d="M164.393,333.082l19.728-16.09s29.34-29.577,34.014-38.125,11.949-15.277,25.14-20.571l.414-.177a10.352,10.352,0,0,1-5.353-10.219c.651-7.394,12.408-19.107,20.541-23.188l1.937-18.545h3.342l1.006-11.4s-.917-51.035-3.594-83.3-5.043-48.492-6.492-68.16-4.067-15.794,1.287-19.136C260.8,21.4,272.438,53.49,273.311,56.7c5.279,19.846,19.595,59.465,19.595,82.18,0,19.4,2.884,26.782-5.161,38.672-10.1,14.936-6.463,27.669-6.463,27.669l2.632.488,2.144.385.976,6.122.71,4.658s10.929-.488,16.267,6.137a111.669,111.669,0,0,1,40.772-1.242c22.878,3.446,42.561,11.358,46.406,14.789s6.773,19.077,3.934,27.092l-50.281,2.958v.251l-28.32,2.337v-.1H314.23l-13.206.074-.311,1.316-1.479.118,1.479-.118-2.958,3.135c3.52,5.487,10.027,11.476,13.62,15.631a14.211,14.211,0,0,0,5.1,3.712v-.251c4.54,4.688,12.2,12.215,18.279,16.1,4.7,2.958,10.559,6.951,15.2,10.1,5.915,4.584,15.262,15.055,23.662,29.577,8.784,15.2,24.7,41.127,33.156,51.641,3.845,10.9-16.948-3.815-16.948-3.815s-29.666-34.561-35.359-41.408c-2.484-2.958-35.8-39.722-35.8-39.722l-16.755-18.116-17.081-17.11a39.208,39.208,0,0,1-3.194,2.322,4.954,4.954,0,0,1-4.821.222c-2.558-1.656-7.912-13.31-7.912-13.31l-7.128-1.819h-.163l-4.629-1.2-2.218,2.558-96.539,79.192-3.7.163,1.582-4.791Z" transform="translate(-154.458 -23.996)" fill="#fff"/>
        <path id="Path_43495" data-name="Path 43495" d="M234.043,243.7l3,68.441,4.673,106.433,5.354,131.19H195.549L202.5,208.75Z" transform="translate(-55.06 64.474)" fill="#fff"/>
        <path id="Path_43496" data-name="Path 43496" d="M219.78,218.318s-1.568-1.715-3.86-4.348c0,0,1.479,1.671,3.86,4.1Z" transform="translate(-57.774 66.973)" fill="none"/>
        <path id="Path_43497" data-name="Path 43497" d="M228.5,220.311a161.827,161.827,0,0,1-12.526-16.134l.5-2.041.311-1.316h15.5v23.662C230.019,221.938,228.5,220.311,228.5,220.311Z" transform="translate(-70.35 60.676)" fill="none"/>
        <path id="Path_43498" data-name="Path 43498" d="M203.12,214.755V191.227l28.32-2.337,2.2,49.837s1.109.813,2.958,2.233c-4.644-3.15-10.515-7.084-15.2-10.086C215.321,226.985,207.645,219.443,203.12,214.755Z" transform="translate(-55.666 54.964)" fill="#fff"/>
        <path id="Path_43499" data-name="Path 43499" d="M216.231,200.849l13.206-.074,2.292-.015v.1l-15.809,1.3Z" transform="translate(-69.723 60.648)" fill="none"/>
        <path id="Path_43500" data-name="Path 43500" d="M228.5,220.307a161.83,161.83,0,0,1-12.526-16.134l.5-2.041,15.809-1.3v23.78S230.758,222.894,228.5,220.307Z" transform="translate(-70.35 60.681)" fill="none"/>
        <path id="Path_43501" data-name="Path 43501" d="M219.781,200.889,223,202.738l3.076,1.257,3.564.9h.163l7.128,1.819s5.353,11.7,7.912,13.31c1.612,1.035,7.054-.784,8.3-1.479l-4.718-5.8s1.316-8.873,13.014-7.808l4.348,6.67s5.043-8.222,4.821-9.376,6.951-8.71,8.06-19.8-4.363-32.757-32.771-26.871c0,0,9.184.887,12.91,16.031S240.026,197.621,219.781,200.889Z" transform="translate(-122.504 38.528)" fill="#e1eaf8"/>
        <path id="Path_43502" data-name="Path 43502" d="M230.593,258.861l-27.033-28.1,2.366-15.883L228.893,241.4Z" transform="translate(-50.309 67.409)" fill="#e1eaf8"/>
        <path id="Path_43503" data-name="Path 43503" d="M232.1,175.733V172.11l-15.5,15.262,1.257,10.1v25.421a181.628,181.628,0,0,0,14.079,12.053C231.6,200.164,231.507,176.887,232.1,175.733Z" transform="translate(-71.098 46.929)" fill="#e1eaf8"/>
        <path id="Path_43504" data-name="Path 43504" d="M213.18,565.792h25.259c-.636-34.827-6.137-240.919-7.394-345.43L219.924,209.7Z" transform="translate(-72.381 64.929)" fill="#e1eaf8"/>
        <path id="Path_43505" data-name="Path 43505" d="M256.14,272.949c3.9,1.937,100.931-82.742,100.931-82.742l1.982-.991A35.685,35.685,0,0,1,343.436,182c-13.191,5.294-23.1,17.066-27.684,25.525s-30.3,30.316-30.3,30.316L261.2,261.666S252.25,271,256.14,272.949Z" transform="translate(-255.077 51.664)" fill="#e1eaf8"/>
        <path id="Path_43506" data-name="Path 43506" d="M169.267,168.3s72.286-4.259,80.021-.665,7.527,21.636,5.176,28.1l-92.472,5.413v-4.274l-.222-1.154S171.263,189.021,169.267,168.3Z" transform="translate(-13.812 44.096)" fill="#e1eaf8"/>
        <path id="Path_43507" data-name="Path 43507" d="M159.56,189.5s10.988,33.126,30.952,41.275c36.468,14.907,51.464,46.3,81.159,81.9,0,0-21.133-35.019-32.9-53.667-17.406-27.61-36.069-35.492-44.72-40.683a82.4,82.4,0,0,1-28.793-29.577Z" transform="translate(-26.318 54.897)" fill="#e1eaf8"/>
        <path id="Path_43508" data-name="Path 43508" d="M247.354,163.122c-7.394,25.318-4.437,41.29-4.437,41.29h10.515v-.384l-2.632-.488s-3.15-7.025,5.043-23.1c3.919-7.69,5.28-5.5,6.906-28.1S244.412,49.827,231.694,27.733C230.141,24.746,261.108,116.021,247.354,163.122Z" transform="translate(-124.08 -22.241)" fill="#e1eaf8"/>
        <path id="Path_43509" data-name="Path 43509" d="M219.879,154.47c8.5.311,15.04,2.292,19.092,10.352,5.915,11.831,5.339,27.625-4.437,36.468" transform="translate(-86.637 38.482)" fill="none" stroke="#8190ae" stroke-linecap="round" stroke-linejoin="round" stroke-width="1.021"/>
        <path id="Path_43510" data-name="Path 43510" d="M278.7,204.523c-15.883-3.135-30.006-11.831-30.583-19.876s8.873-18.426,21.739-25.377" transform="translate(-164.266 40.78)" fill="none" stroke="#8190ae" stroke-linecap="round" stroke-linejoin="round" stroke-width="1.021"/>
        <path id="Path_43511" data-name="Path 43511" d="M235.37,165.725l1.937-18.545h25.244l1.686,10.781s-4.806-.163-14.434,2.44" transform="translate(-130.995 34.991)" fill="none" stroke="#8190ae" stroke-linecap="round" stroke-linejoin="round" stroke-width="1.021"/>
        <path id="Path_43512" data-name="Path 43512" d="M257.719,206.128s-1.982-9.879,8.74-28.882.118-63.827-8.873-96.125S241.037,25.53,233.48,24.1s6.359,82.121,7.158,118.308,3.638,45.282,2.144,63.665" transform="translate(-131.619 -23.957)" fill="none" stroke="#8190ae" stroke-linecap="round" stroke-linejoin="round" stroke-width="1.021"/>
        <path id="Path_43513" data-name="Path 43513" d="M154.721,196.659s5.117-10.352,13.014-7.808c6.67,9.553,14.6,20.408,24.741,27.019,10.648,6.951,21.828,12.023,30.938,20.911a142.251,142.251,0,0,1,22.183,29.4c10.707,18,19.565,37.193,33.836,52.928,1.2,1.331,2.514,3.15,1.553,4.644s-3.889,1.124-5.767.207c-11.7-5.767-18.855-16.593-27.033-25.791-6.492-7.291-12.94-14.611-19.432-21.9-14.922-16.726-29.9-33.392-45.134-49.852-5.753-6.226-11.55-12.437-17.465-18.545C165.324,207.011,154.454,197.25,154.721,196.659Z" transform="translate(-28.799 54.752)" fill="none" stroke="#8190ae" stroke-linecap="round" stroke-linejoin="round" stroke-width="1.021"/>
        <path id="Path_43514" data-name="Path 43514" d="M227.192,196.756s2.854-4.688,2.958-6.877-4.821-9.169-4.821-9.169" transform="translate(-82.06 51.047)" fill="none" stroke="#8190ae" stroke-linecap="round" stroke-linejoin="round" stroke-width="1.021"/>
        <path id="Path_43515" data-name="Path 43515" d="M253.359,206.6s-4.865,2.263-6.714,0-8.045-13.738-8.045-13.738,8.4-10.781,14.789-12.156" transform="translate(-124.923 51.047)" fill="none" stroke="#8190ae" stroke-linecap="round" stroke-linejoin="round" stroke-width="1.021"/>
        <path id="Path_43516" data-name="Path 43516" d="M358.662,190.064c-19.122,16.815-95.593,82.816-100.562,82.816-5.634,0,2.322-9.346,6.463-14.153s43.552-36.72,54.436-54.555a55.826,55.826,0,0,1,26.279-21.9" transform="translate(-256.15 51.794)" fill="none" stroke="#8190ae" stroke-linecap="round" stroke-linejoin="round" stroke-width="1.021"/>
        <path id="Path_43517" data-name="Path 43517" d="M179.108,157.154c6.108,1.952,29.873,9.775,32.446,14.093,3.579,6.019,3.416,23.662,3.179,31.056l11.106-.651c.207-9.051.1-26.235-3.549-32.313-2.958-3.549-10.2-7.1-17.332-9.938a106.936,106.936,0,0,0-15.986-2.721A89.152,89.152,0,0,0,179.108,157.154Z" transform="translate(-9.456 39.539)" fill="#acbad6"/>
        <path id="Path_43518" data-name="Path 43518" d="M204.59,158.9s14.271,6.477,16.785,13.428c2.174,5.768,1.479,25.14,1.227,31.559l11.21-.68c0-8.075-.222-27.211-1.361-32.18-1.479-6.344-21.576-13-21.576-13l-4.806.651Z" transform="translate(-55.051 40.186)" fill="#acbad6"/>
        <path id="Path_43519" data-name="Path 43519" d="M162.12,205.794l21.1-1.287,11.21-.68,26.442-1.479,11.106-.651,24.268-1.479s4.141-22.183-5.176-28.1c-6.3-3.963-25.377-9.494-39.929-12.777a106.932,106.932,0,0,0-15.986-2.721,89.14,89.14,0,0,0-9.864.429c-4.688.414-9.716,1.02-13.753,1.553-1.878.222-5.072.281-6.359.473" transform="translate(-15.598 39.509)" fill="none" stroke="#8190ae" stroke-linecap="round" stroke-linejoin="round" stroke-width="1.021"/>
        <line id="Line_28" data-name="Line 28" x1="1.449" y1="33.259" transform="translate(175.227 244.845)" fill="none" stroke="#8190ae" stroke-linecap="round" stroke-linejoin="round" stroke-width="1.021"/>
        <path id="Path_43520" data-name="Path 43520" d="M202.58,208.75c-1.168,99.822-6.64,357.5-6.64,357.5h50.754L234.124,243.7" transform="translate(-55.141 64.474)" fill="none" stroke="#8190ae" stroke-linecap="round" stroke-linejoin="round" stroke-width="1.021"/>
        <path id="Path_43521" data-name="Path 43521" d="M213.958,259.43a120.612,120.612,0,0,0,19.846,2.692v47.826a57.055,57.055,0,0,1-20.7-1.183" transform="translate(-67.628 88.742)" fill="none" stroke="#8190ae" stroke-linecap="round" stroke-linejoin="round" stroke-width="1.021"/>
      </g>
      <g id="Plants" transform="translate(186.467 533.242)">
        <path id="Path_43522" data-name="Path 43522" d="M177.021,487c-1.276-7.808-1.876-22.183,8.009-30.021,14.162-11.165,35.4,6.965,40.7,6.965s7.09-11.151,23.015-20.926,35.4,2.8,46.012,0-8.854-46.037,21.233-47.427,40.7,58.592,61.9,58.592,24.779-11.165,46.012-1.39C440.543,460.435,449.566,479.2,452.7,487Z" transform="translate(-176.32 -395.564)" fill="#acbad6"/>
        <line id="Line_29" data-name="Line 29" y1="23.055" x2="14.182" transform="translate(225.213 67.43)" fill="none" stroke="#8190ae" stroke-linecap="round" stroke-linejoin="round" stroke-width="1"/>
        <line id="Line_30" data-name="Line 30" x1="7.483" y1="70.497" transform="translate(144.449 19.382)" fill="none" stroke="#8190ae" stroke-linecap="round" stroke-linejoin="round" stroke-width="1"/>
        <line id="Line_31" data-name="Line 31" x1="7.306" y1="26.797" transform="translate(86.168 63.688)" fill="none" stroke="#8190ae" stroke-linecap="round" stroke-linejoin="round" stroke-width="1"/>
        <line id="Line_32" data-name="Line 32" x1="7.232" y1="17.45" transform="translate(20.1 73.035)" fill="none" stroke="#8190ae" stroke-linecap="round" stroke-linejoin="round" stroke-width="1"/>
        <path id="Path_43523" data-name="Path 43523" d="M191.58,441.58l7.483,13.1,17.465-6.862" transform="translate(31.592 -373.529)" fill="none" stroke="#8190ae" stroke-linecap="round" stroke-linejoin="round" stroke-width="1"/>
        <path id="Path_43524" data-name="Path 43524" d="M261.946,412.47l-8.725,15.6-11.86-14.36" transform="translate(-106.194 -385.03)" fill="none" stroke="#8190ae" stroke-linecap="round" stroke-linejoin="round" stroke-width="1"/>
        <path id="Path_43525" data-name="Path 43525" d="M260.444,429.35,249.2,443.074l-11.224-8.74" transform="translate(-100.098 -379.385)" fill="none" stroke="#8190ae" stroke-linecap="round" stroke-linejoin="round" stroke-width="1"/>
        <line id="Line_33" data-name="Line 33" x1="14.966" y1="8.725" transform="translate(74.055 66.809)" fill="none" stroke="#8190ae" stroke-linecap="round" stroke-linejoin="round" stroke-width="1"/>
        <line id="Line_34" data-name="Line 34" y1="19.343" x2="7.498" transform="translate(90.948 61.189)" fill="none" stroke="#8190ae" stroke-linecap="round" stroke-linejoin="round" stroke-width="1"/>
        <line id="Line_35" data-name="Line 35" y1="12.481" x2="3.756" transform="translate(23.841 69.914)" fill="none" stroke="#8190ae" stroke-linecap="round" stroke-linejoin="round" stroke-width="1"/>
        <line id="Line_36" data-name="Line 36" x1="10.603" y1="4.363" transform="translate(14.495 80.532)" fill="none" stroke="#8190ae" stroke-linecap="round" stroke-linejoin="round" stroke-width="1"/>
      </g>
      <g id="Clouds" transform="translate(32.209 37.826)">
        <path id="Path_43526" data-name="Path 43526" d="M365.338,169.6H304.35s-2.958-8.991,7.853-14.892,15.75-.991,19.683-5.915-10.825-17.746,18.693-30.509c0,0,1.982-27.654,42.339-28.557S422.5,117.381,433.261,124.3s13.827-3.949,24.623,2.958,5.915,20.7,14.789,22.626,20.7-8.873,31.5-1.952,10.84,12.792,15.765,12.792,14.789-3.949,20.7,0,12.807,8.873,12.807,8.873H377.8" transform="translate(-303.98 -89.706)" fill="none" stroke="#acbad6" stroke-width="1"/>
        <path id="Path_43527" data-name="Path 43527" d="M203.526,277.489H63.953s3.83-2.765,7.187-4.969,8.873,0,11.624,0,2.8-3.313,8.873-7.172,12.689,2.159,17.643,1.109,2.233-8.873,8.267-12.689,7.72,2.218,13.8-1.656,0-19.861,22.612-19.358,23.662,16,23.662,16c16.548,7.158,8.267,14.345,10.485,17.1s4.969,0,11.017,3.3S203.526,277.489,203.526,277.489Z" transform="translate(364.108 129.617)" fill="none" stroke="#acbad6" stroke-width="1"/>
      </g>
      <g id="Wind" transform="translate(-22.685 285.79)">
        <path id="Path_43528" data-name="Path 43528" d="M509.694,197.078a130.8,130.8,0,0,0-36.054,4.333c-16.519,4.348-32.357,11.55-49.275,13.857s-36.143-1.479-46.525-15" transform="translate(-377.84 -197.053)" fill="none" stroke="#acbad6" stroke-width="1"/>
        <path id="Path_43529" data-name="Path 43529" d="M386.4,219.33c-14.581-12.393-32.771-19.343-51.76-21.68" transform="translate(-190.659 -196.767)" fill="none" stroke="#acbad6" stroke-width="1"/>
        <path id="Path_43530" data-name="Path 43530" d="M476.381,228.894c-11.372-1.479-22.109-6.152-28.971-15.114" transform="translate(-447.41 -189.043)" fill="none" stroke="#acbad6" stroke-width="1"/>
        <path id="Path_43531" data-name="Path 43531" d="M493.424,234.167c-26.826-22.8-65.9-27.2-99.941-18.219-16.519,4.348-32.357,11.55-49.275,13.857a68.418,68.418,0,0,1-9.568.636" transform="translate(-297.684 -190.086)" fill="none" stroke="#acbad6" stroke-width="1"/>
        <path id="Path_43532" data-name="Path 43532" d="M489.281,237.947a134.393,134.393,0,0,1-22.286,5.368c-16.948,2.277-36.173-1.434-46.525-15" transform="translate(-420.47 -182.081)" fill="none" stroke="#acbad6" stroke-width="1"/>
        <path id="Path_43533" data-name="Path 43533" d="M432.226,226.42a131.917,131.917,0,0,0-23.248,3.949c-7.586,2-15.025,4.6-22.479,7.039" transform="translate(-313.179 -182.991)" fill="none" stroke="#acbad6" stroke-width="1"/>
        <path id="Path_43534" data-name="Path 43534" d="M394.134,248.65C377.6,234.6,356.424,227.532,334.64,226.29" transform="translate(-198.394 -183.053)" fill="none" stroke="#acbad6" stroke-width="1"/>
      </g>
    </g>
  </g>
</svg>
