<svg xmlns="http://www.w3.org/2000/svg" width="207.236" height="238.132" viewBox="0 0 207.236 238.132">
  <g id="illustration_chat_empty_state" transform="translate(-108.946 -28.347)">
    <g id="Grey_Stars" data-name="Grey Stars">
      <path id="Grey_Star_05" data-name="Grey Star #05" d="M7.758,6.266a1.8,1.8,0,0,1,3.469,0l.19.685A1.8,1.8,0,0,0,12.6,8.184l1.07.345a1.8,1.8,0,0,1,0,3.426L12.6,12.3a1.8,1.8,0,0,0-1.183,1.233l-.19.685a1.8,1.8,0,0,1-3.469,0l-.19-.685A1.8,1.8,0,0,0,6.386,12.3l-1.07-.345a1.8,1.8,0,0,1,0-3.426l1.07-.345A1.8,1.8,0,0,0,7.568,6.951Z" transform="translate(138.507 137.648)" fill="#e8eef2"/>
      <path id="Grey_Star_03" data-name="Grey Star #03" d="M7.758,6.266a1.8,1.8,0,0,1,3.469,0l.19.685A1.8,1.8,0,0,0,12.6,8.184l1.07.345a1.8,1.8,0,0,1,0,3.426L12.6,12.3a1.8,1.8,0,0,0-1.183,1.233l-.19.685a1.8,1.8,0,0,1-3.469,0l-.19-.685A1.8,1.8,0,0,0,6.386,12.3l-1.07-.345a1.8,1.8,0,0,1,0-3.426l1.07-.345A1.8,1.8,0,0,0,7.568,6.951Z" transform="translate(268.507 55.648)" fill="#e8eef2"/>
      <path id="Grey_Star_02" data-name="Grey Star #02" d="M8.759,6.219a1.8,1.8,0,0,1,3.468,0l.419,1.5a1.8,1.8,0,0,0,1.185,1.231l1.8.575a1.8,1.8,0,0,1,0,3.429l-1.8.575a1.8,1.8,0,0,0-1.185,1.231l-.419,1.5a1.8,1.8,0,0,1-3.468,0l-.419-1.5a1.8,1.8,0,0,0-1.185-1.231l-1.8-.575a1.8,1.8,0,0,1,0-3.429l1.8-.575A1.8,1.8,0,0,0,8.34,7.721Z" transform="translate(241.642 115.165)" fill="#e8eef2"/>
      <path id="Grey_Star_01" data-name="Grey Star #01" d="M7.758,6.266a1.8,1.8,0,0,1,3.469,0l.19.685A1.8,1.8,0,0,0,12.6,8.184l1.07.345a1.8,1.8,0,0,1,0,3.426L12.6,12.3a1.8,1.8,0,0,0-1.183,1.233l-.19.685a1.8,1.8,0,0,1-3.469,0l-.19-.685A1.8,1.8,0,0,0,6.386,12.3l-1.07-.345a1.8,1.8,0,0,1,0-3.426l1.07-.345A1.8,1.8,0,0,0,7.568,6.951Z" transform="translate(136.507 38.782)" fill="#e8eef2"/>
    </g>
    <g id="Star_04" data-name="Star #04" transform="translate(-34.409 -25.335)">
      <path id="Star" d="M11.26,6.544a1.8,1.8,0,0,1,3.479,0l.722,2.717a1.8,1.8,0,0,0,1.277,1.277l2.717.722a1.8,1.8,0,0,1,0,3.479l-2.717.722a1.8,1.8,0,0,0-1.277,1.277l-.722,2.717a1.8,1.8,0,0,1-3.479,0l-.722-2.717a1.8,1.8,0,0,0-1.277-1.277L6.544,14.74a1.8,1.8,0,0,1,0-3.479l2.717-.722a1.8,1.8,0,0,0,1.277-1.277Z" transform="matrix(0.974, -0.225, 0.225, 0.974, 319.409, 180.257)" fill="#ff6414"/>
    </g>
    <g id="Star_02" data-name="Star #02" transform="translate(-6.929 34.136) rotate(-8)">
      <path id="Shadow" d="M12.266,6.219a1.8,1.8,0,0,1,3.468,0l1.225,4.4a1.8,1.8,0,0,0,1.185,1.231l4.5,1.44a1.8,1.8,0,0,1,0,3.429l-4.5,1.44a1.8,1.8,0,0,0-1.185,1.231l-1.225,4.4a1.8,1.8,0,0,1-3.468,0l-1.225-4.4a1.8,1.8,0,0,0-1.185-1.231l-4.5-1.44a1.8,1.8,0,0,1,0-3.429l4.5-1.44a1.8,1.8,0,0,0,1.185-1.231Z" transform="translate(203.048 52.094) rotate(-8)" fill="#ff6414"/>
    </g>
    <g id="Star_01" data-name="Star #01" transform="translate(56.473 -44.971)">
      <path id="Star-2" data-name="Star" d="M13.1,5.862a2,2,0,0,1,3.8,0l1.458,4.492a2,2,0,0,0,1.285,1.285L24.138,13.1a2,2,0,0,1,0,3.8L19.645,18.36a2,2,0,0,0-1.285,1.285L16.9,24.138a2,2,0,0,1-3.8,0L11.64,19.645a2,2,0,0,0-1.285-1.285L5.862,16.9a2,2,0,0,1,0-3.8l4.492-1.458a2,2,0,0,0,1.285-1.285Z" transform="translate(63.711 155.473) rotate(22)" fill="#ff6414"/>
    </g>
    <g id="Box" transform="translate(-1516.195 -729.451)">
      <path id="Path_43306" data-name="Path 43306" d="M409.189,176.246,351,211.837,285.98,191.2l58.192-35.591Z" transform="translate(1373.049 714.43)" fill="#082c75"/>
      <path id="Path_43312" data-name="Path 43312" d="M383.544,176.238,318.58,155.62l6.807,56.191Z" transform="translate(1398.693 714.438)" fill="#212427" opacity="0.4"/>
      <path id="Path_43304" data-name="Path 43304" d="M359.448,265.829l-65.017-20.636L285.98,175.53,351,196.166Z" transform="translate(1373.049 730.101)" fill="#1436bf"/>
      <path id="Path_43305" data-name="Path 43305" d="M330.821,272.413l58.192-35.573-8.451-69.68L322.37,202.751Z" transform="translate(1401.676 723.516)" fill="#1436bf"/>
      <path id="Path_43313" data-name="Path 43313" d="M330.821,272.413l58.192-35.573-8.451-69.68L322.37,202.751Z" transform="translate(1401.676 723.516)" fill="#212427" opacity="0.2"/>
      <path id="Path_43310" data-name="Path 43310" d="M402.309,179.573l-64.428-20.44L318.55,155.56,383.567,176.2l18.742,3.395Z" transform="translate(1398.671 714.391)" fill="#0c3cfd"/>
      <path id="Path_43311" data-name="Path 43311" d="M333.8,163.632s-56.012,34.251-57.442,35.144v.107l17.188-7.683L351.74,155.61Z" transform="translate(1365.481 714.43)" fill="#0c3cfd"/>
      <path id="Path_43308" data-name="Path 43308" d="M359.336,196.166,340.4,226.986,275.38,206.35l18.939-30.82Z" transform="translate(1364.71 730.101)" fill="#0c3cfd"/>
      <path id="Path_43309" data-name="Path 43309" d="M322.37,202.751l25.764,25.407,58.192-35.591L380.562,167.16Z" transform="translate(1401.676 723.516)" fill="#0c3cfd"/>
      <path id="Path" d="M-1968.806-458.617c12.778-60.125,8.156-31.725,14.83-81.949,9.7-25.676-51.151-56.553-58.581-11.014-3.331,49.76,95.943,38.184,80.885-28.545-15.884-58.559,44.045-39.584,44.045-39.584" transform="translate(3687.004 1381.451)" fill="none" stroke="#e8eef2" stroke-linecap="round" stroke-width="2" stroke-dasharray="4 6"/>
    </g>
  </g>
</svg>
