<svg xmlns="http://www.w3.org/2000/svg" width="275.41" height="237.097" viewBox="0 0 275.41 237.097">
  <g id="illustration_password_check_email" transform="translate(-152.539 -156)">
    <g id="Background" transform="translate(152.539 156)">
      <path id="Path_38050" data-name="Path 38050" d="M228.5,146.708a49.181,49.181,0,0,0-7.068-17l6.086-7.352-12.983-12.983-7.352,6.086a49.246,49.246,0,0,0-16.991-7.1L189.3,98.89H170.868l-.893,9.469a49.14,49.14,0,0,0-16.991,7.068l-7.352-6.086-12.983,12.983,6.086,7.352a49.181,49.181,0,0,0-7.068,17l-9.478.893v18.4l9.478.893a49.246,49.246,0,0,0,7.068,17l-6.151,7.384,12.983,12.983,7.352-6.086A48.987,48.987,0,0,0,169.91,205.2l.893,9.478h18.4l.893-9.478a49.092,49.092,0,0,0,17-7.068l7.352,6.086,12.983-12.983-6.086-7.352a49.246,49.246,0,0,0,7.068-17l9.478-.893V147.6Zm-23.532,10.086a24.915,24.915,0,1,1,.008,0Z" transform="translate(-122.19 -90.503)" fill="#e8eef2"/>
      <path id="Path_38053" data-name="Path 38053" d="M222.045,357.724h15.742l.763-8.114a41.806,41.806,0,0,0,14.549-6.037l6.289,5.209L270.5,337.641l-5.234-6.28a41.927,41.927,0,0,0,6.037-14.541l8.114-.763V300.315l-8.114-.763a41.951,41.951,0,0,0-6.037-14.533l5.2-6.289L259.339,267.6l-6.24,5.2a42.121,42.121,0,0,0-14.533-6.045l-.763-8.114H222.061l-.763,8.114a42.1,42.1,0,0,0-14.541,6.045l-6.289-5.2L189.32,278.731l5.209,6.289a41.8,41.8,0,0,0-6.045,14.533l-8.114.763v15.742l8.114.763a41.789,41.789,0,0,0,6.045,14.541l-5.209,6.28,11.133,11.133,6.289-5.209a41.789,41.789,0,0,0,14.541,6.045Zm7.871-28.23a8.829,8.829,0,1,1,0,.032Z" transform="translate(-64.669 -120.627)" fill="#e8eef2"/>
      <path id="Path_38054" data-name="Path 38054" d="M334.3,343.566l-.811-1.623a10.6,10.6,0,0,0-14.3-4.455l-3.8,1.988a10.613,10.613,0,0,0-4.455,14.306l.811,1.582-2.645,1.4,9.534,18.16,27.84-14.606-9.534-18.168Zm-5.81,13.892,1.663,3.173-2.012,1.063-1.663-3.173a2.207,2.207,0,0,1-1.858-1.16,2.248,2.248,0,1,1,3.976-2.085A2.183,2.183,0,0,1,328.5,357.458Zm1.623-11.668-14.192,7.449-.811-1.623a5.883,5.883,0,0,1,2.475-7.928l3.789-1.988a5.883,5.883,0,0,1,7.928,2.434Z" transform="translate(-71.074 -148.721)" fill="#e8eef2"/>
      <path id="Path_38056" data-name="Path 38056" d="M281.076,91.362,280,91.816a6.954,6.954,0,1,0-5.956,2.507l-1.079.454a6.491,6.491,0,0,0-3.457,8.455l1.428,3.408,20.034-8.423-1.436-3.4A6.492,6.492,0,0,0,281.076,91.362Z" transform="translate(-144.707 -80.44)" fill="#e8eef2"/>
    </g>
    <g id="Plane" transform="translate(112.621 222.974)">
      <path id="Path_38370" data-name="Path 38370" d="M425.12,283.837,534.557,213.75l48.2,15.5Z" transform="translate(-338.022 -180.686)" fill="#0c3cfd"/>
      <path id="Path_38371" data-name="Path 38371" d="M425.12,304.121l94.587-78.883L498.7,200.97Z" transform="translate(-338.022 -200.97)" fill="#0c3cfd"/>
      <path id="Path_38372" data-name="Path 38372" d="M519.707,210.35v18.317L425.12,289.233Z" transform="translate(-338.022 -186.082)" fill="#1436bf"/>
    </g>
  </g>
</svg>
