<svg xmlns="http://www.w3.org/2000/svg" width="304.547" height="57.063" viewBox="0 0 304.547 57.063" preserveAspectRatio="none">
  <g id="logo_on_light" transform="translate(0.001 0.006)">
    <g id="Brand" transform="translate(-0.001 -0.006)">
      <g id="Typo" transform="translate(108.173 1.718)">
        <g id="Inc." transform="translate(152.444 26.865)">
          <path id="Path_43583" data-name="Path 43583" d="M2147.629,297.02h-2.152a.487.487,0,0,0-.487.487v13.766a.487.487,0,0,0,.487.487h2.883a.487.487,0,0,0,.487-.487V298.238A1.219,1.219,0,0,0,2147.629,297.02Z" transform="translate(-2144.247 -289.411)" fill="#082c75"/>
          <path id="Path_43584" data-name="Path 43584" d="M2202.681,297.057a5.174,5.174,0,0,0-3.965,1.7.238.238,0,0,1-.419-.154v-.358a1.219,1.219,0,0,0-1.219-1.218h-2.171a.487.487,0,0,0-.487.487v13.766a.487.487,0,0,0,.487.487h3a.487.487,0,0,0,.487-.487v-7.307a2.968,2.968,0,0,1,2.99-3.269c1.647,0,2.711,1.14,2.711,3.168v7.408a.487.487,0,0,0,.488.487h3a.487.487,0,0,0,.487-.487v-8.448a5.664,5.664,0,0,0-1.572-4.283,5.383,5.383,0,0,0-3.827-1.5Z" transform="translate(-2187.654 -289.42)" fill="#082c75"/>
          <path id="Path_43585" data-name="Path 43585" d="M2336.012,307.347l-1.007-.595a1.312,1.312,0,0,0-1.612.206,3.833,3.833,0,0,1-2.728,1.165,3.43,3.43,0,0,1-2.569-1.027,3.686,3.686,0,0,1-1-2.645,3.554,3.554,0,0,1,3.621-3.647,3.623,3.623,0,0,1,2.738,1.2,1.322,1.322,0,0,0,1.6.268l1-.534a1.322,1.322,0,0,0,.43-1.968,7.241,7.241,0,0,0-5.839-2.69,7.416,7.416,0,0,0-5.444,2.08,7.023,7.023,0,0,0-2.105,5.291,7.2,7.2,0,0,0,2.08,5.316,7.38,7.38,0,0,0,5.393,2.054,7.635,7.635,0,0,0,5.767-2.453,1.326,1.326,0,0,0-.317-2.021Z" transform="translate(-2300.646 -289.464)" fill="#082c75"/>
          <circle id="Ellipse_518" data-name="Ellipse 518" cx="2.233" cy="2.233" r="2.233" transform="translate(39.462 17.883)" fill="#0c3cfd"/>
          <circle id="Ellipse_519" data-name="Ellipse 519" cx="2.233" cy="2.233" r="2.233" transform="translate(0 1.026) rotate(-13.28)" fill="#082c75"/>
        </g>
        <g id="Mortgages" transform="translate(0.001 30.355)">
          <g id="Group_160908" data-name="Group 160908">
            <path id="Path_43586" data-name="Path 43586" d="M1859.094,306.276h-8.1a.486.486,0,0,0-.446.685,3.554,3.554,0,0,0,3.577,1.959,7.619,7.619,0,0,0,3.415-.793,1.213,1.213,0,0,1,1.585.485l.408.7a1.218,1.218,0,0,1-.447,1.668,10.179,10.179,0,0,1-5.142,1.275,7.5,7.5,0,0,1-5.727-2.131,7.422,7.422,0,0,1-1.978-5.238,7.284,7.284,0,0,1,2.054-5.264,7.86,7.86,0,0,1,10.478-.206,6.751,6.751,0,0,1,2,5.161v.015A1.687,1.687,0,0,1,1859.094,306.276Zm-8.312-2.876h5.626a.364.364,0,0,0,.345-.486,3.135,3.135,0,0,0-3.089-2.134,3.335,3.335,0,0,0-3.223,2.121.364.364,0,0,0,.341.5Z" transform="translate(-1729.456 -293.34)" fill="#082c75"/>
            <path id="Path_43587" data-name="Path 43587" d="M1975.609,308.92l.673-.892a1.09,1.09,0,0,1,1.527-.212,5.12,5.12,0,0,0,3.159,1.1c.988,0,1.7-.431,1.7-1.115,0-.406-.279-.735-.861-1.014-.2-.1-.76-.3-1.647-.608-.887-.329-1.5-.558-1.8-.709a3.892,3.892,0,0,1-2.483-3.675,3.761,3.761,0,0,1,1.469-3.092,6.176,6.176,0,0,1,3.954-1.192,7.007,7.007,0,0,1,4.173,1.229,1.087,1.087,0,0,1,.253,1.523l-.628.876a1.093,1.093,0,0,1-1.454.3,4.665,4.665,0,0,0-2.422-.707c-.887,0-1.445.406-1.445.988,0,.507.406.887,1.242,1.166a21.623,21.623,0,0,1,3.295,1.267,3.865,3.865,0,0,1,2.357,3.548,4.065,4.065,0,0,1-1.572,3.244,6.25,6.25,0,0,1-4.131,1.293,7.621,7.621,0,0,1-5.2-1.834,1.093,1.093,0,0,1-.156-1.482Z" transform="translate(-1842.867 -293.332)" fill="#082c75"/>
            <path id="Path_43588" data-name="Path 43588" d="M1232.84,311.751V297.977a.487.487,0,0,1,.487-.487h2.132a1.219,1.219,0,0,1,1.218,1.218v.2a.243.243,0,0,0,.434.151,4.091,4.091,0,0,1,3.378-1.561,5.3,5.3,0,0,1,.567.028,1.218,1.218,0,0,1,1.086,1.317l-.191,1.533c-.026.3-.3.429-.6.431-2.963.013-4.485,1.21-4.494,4.676v6.268a.487.487,0,0,1-.487.487h-3.042a.487.487,0,0,1-.487-.487Z" transform="translate(-1190.797 -293.314)" fill="#082c75"/>
            <path id="Path_43589" data-name="Path 43589" d="M909.624,299.069a5.783,5.783,0,0,1,1.675,4.451v8.231a.487.487,0,0,1-.487.487h-3.135a.487.487,0,0,1-.487-.487V304.3c0-1.99-1.073-3.038-2.644-3.038a2.885,2.885,0,0,0-2.933,3.168v7.314a.487.487,0,0,1-.487.487H897.99a.487.487,0,0,1-.487-.487v-7.419c0-1.912-1.1-3.063-2.7-3.063a2.888,2.888,0,0,0-2.906,3.194v7.289a.487.487,0,0,1-.487.487h-3.135a.487.487,0,0,1-.487-.487V297.984a.487.487,0,0,1,.487-.487h2.3a1.219,1.219,0,0,1,1.219,1.218v.4a.243.243,0,0,0,.431.154,5.023,5.023,0,0,1,3.993-1.777,4.383,4.383,0,0,1,3.852,1.956.367.367,0,0,0,.591.048,6.219,6.219,0,0,1,4.747-2,5.922,5.922,0,0,1,4.215,1.571Z" transform="translate(-887.79 -293.319)" fill="#082c75"/>
            <path id="Path_43590" data-name="Path 43590" d="M1581.031,297.51h2.081a1.219,1.219,0,0,1,1.219,1.218v13.035a.487.487,0,0,1-.487.487h-2.812a.487.487,0,0,1-.487-.487v-.245a.488.488,0,0,0-.781-.389,5.846,5.846,0,0,1-3.543,1.12,6.5,6.5,0,0,1-4.964-2.124,7.586,7.586,0,0,1-1.945-5.322,7.269,7.269,0,0,1,1.97-5.22,6.529,6.529,0,0,1,4.938-2.073,5.764,5.764,0,0,1,3.92,1.46.243.243,0,0,0,.4-.183V298A.487.487,0,0,1,1581.031,297.51Zm-6.705,10a3.417,3.417,0,0,0,2.584,1.075,3.349,3.349,0,0,0,2.584-1.1,3.735,3.735,0,0,0,1.049-2.636,3.632,3.632,0,0,0-1.049-2.61,3.645,3.645,0,0,0-5.169,0,3.7,3.7,0,0,0-1,2.61A3.866,3.866,0,0,0,1574.325,307.515Z" transform="translate(-1486.269 -293.332)" fill="#082c75"/>
            <path id="Path_43591" data-name="Path 43591" d="M1334.4,280a1.215,1.215,0,0,1-.662,1.522,8.338,8.338,0,0,1-3.289.62c-3.352,0-5.015-1.894-5.015-5.655v-5.515a.244.244,0,0,0-.244-.244h-1.5a.487.487,0,0,1-.487-.487v-1.621a1.219,1.219,0,0,1,1.218-1.218h.79a.244.244,0,0,0,.244-.244V263.7a.487.487,0,0,1,.723-.426l2.639,1.455a1.218,1.218,0,0,1,.63,1.067v1.354a.244.244,0,0,0,.244.244h3.772a.487.487,0,0,1,.487.487v1.621a1.219,1.219,0,0,1-1.219,1.218H1329.7a.244.244,0,0,0-.244.244V276.1c0,1.586.614,2.38,1.868,2.38a4.608,4.608,0,0,0,1.825-.462.487.487,0,0,1,.658.283Z" transform="translate(-1270.155 -263.217)" fill="#082c75"/>
            <path id="Path_43592" data-name="Path 43592" d="M1441.706,297.511h2.037a1.219,1.219,0,0,1,1.219,1.218v12.079a6.922,6.922,0,0,1-2.277,5.471,8.244,8.244,0,0,1-5.758,2.042,11.139,11.139,0,0,1-5.741-1.515,1.217,1.217,0,0,1-.456-1.606l.469-.907a1.215,1.215,0,0,1,1.647-.519,8.289,8.289,0,0,0,3.925,1.038c2.476,0,3.906-1.273,4.218-3.058a.488.488,0,0,0-.759-.489,5.851,5.851,0,0,1-3.432.981,6.8,6.8,0,0,1-5.156-2.068,7.9,7.9,0,0,1,.1-10.6,7.082,7.082,0,0,1,5.209-2.068,5.7,5.7,0,0,1,3.861,1.393.244.244,0,0,0,.406-.182V298a.487.487,0,0,1,.487-.487Zm-4.257,3.769a3.531,3.531,0,0,0-2.617,1.047,3.453,3.453,0,0,0-1.047,2.617,3.61,3.61,0,0,0,1.047,2.67,3.554,3.554,0,0,0,2.617,1.073,3.435,3.435,0,0,0,2.592-1.047,3.67,3.67,0,0,0,1.047-2.7,3.542,3.542,0,0,0-3.638-3.665Z" transform="translate(-1363.626 -293.332)" fill="#082c75"/>
            <path id="Path_43593" data-name="Path 43593" d="M1718.646,297.511h2.037a1.219,1.219,0,0,1,1.219,1.218v12.079a6.922,6.922,0,0,1-2.277,5.471,8.244,8.244,0,0,1-5.758,2.042,11.139,11.139,0,0,1-5.741-1.515,1.217,1.217,0,0,1-.456-1.606l.469-.907a1.215,1.215,0,0,1,1.647-.519,8.289,8.289,0,0,0,3.925,1.038c2.476,0,3.906-1.273,4.218-3.058a.488.488,0,0,0-.759-.489,5.851,5.851,0,0,1-3.432.981,6.8,6.8,0,0,1-5.157-2.068,7.9,7.9,0,0,1,.1-10.6,7.082,7.082,0,0,1,5.209-2.068,5.7,5.7,0,0,1,3.861,1.393.244.244,0,0,0,.406-.182V298a.487.487,0,0,1,.487-.487Zm-4.257,3.769a3.531,3.531,0,0,0-2.617,1.047,3.453,3.453,0,0,0-1.047,2.617,3.61,3.61,0,0,0,1.047,2.67,3.554,3.554,0,0,0,2.617,1.073,3.435,3.435,0,0,0,2.592-1.047,3.67,3.67,0,0,0,1.047-2.7,3.542,3.542,0,0,0-3.638-3.665Z" transform="translate(-1606.822 -293.332)" fill="#082c75"/>
            <path id="Path_43594" data-name="Path 43594" d="M1096.825,310.165a7.226,7.226,0,0,1-2.094-5.263,7.127,7.127,0,0,1,2.094-5.237,8.006,8.006,0,0,1,10.909,0,7.149,7.149,0,0,1,2.12,5.237,7.249,7.249,0,0,1-2.12,5.263,8.077,8.077,0,0,1-10.909,0Zm7.97-7.842a3.517,3.517,0,0,0-5.059,0,3.488,3.488,0,0,0-1.022,2.555,3.621,3.621,0,0,0,1.022,2.631,3.577,3.577,0,0,0,5.059,0,3.644,3.644,0,0,0,1.048-2.631A3.433,3.433,0,0,0,1104.795,302.323Z" transform="translate(-1069.515 -293.34)" fill="#082c75"/>
          </g>
        </g>
        <g id="Wind" transform="translate(86.018)">
          <path id="Path_43595" data-name="Path 43595" d="M1812.748,20.83a3.787,3.787,0,0,1,3.488-1.883,4.624,4.624,0,0,1,4.135,4.19c.395,3.774-3.529,6.648-7.09,5.83a7.112,7.112,0,0,1-5.292-7.829,8.17,8.17,0,0,1,4.586-6.112c6.36-3.131,13.352,2.042,13.753,8.769a10.545,10.545,0,0,1-1.632,6.336,12.117,12.117,0,0,1-5.131,4.337c-10.1,4.351-24.607-6.124-35.033-7.275a10.82,10.82,0,0,0-8.105,2.319.709.709,0,0,1-1.052-.913,9.553,9.553,0,0,1,3.9-3.677c10.375-4.9,23.155,5.534,33.419,6.938a10.406,10.406,0,0,0,5.49-.557,8.554,8.554,0,0,0,3.624-3.1,7.656,7.656,0,0,0,1.049-2.918,7.767,7.767,0,0,0-1.841-6.192,6.249,6.249,0,0,0-3.34-2.038,5.707,5.707,0,0,0-4.887,1.255,5.115,5.115,0,0,0-1.666,2.6,4.476,4.476,0,0,0,.931,3.925,3.826,3.826,0,0,0,1.885,1.265,3.312,3.312,0,0,0,2.2-.188,2.926,2.926,0,0,0,1.818-2.6,2.371,2.371,0,0,0-3.035-2.374,2.3,2.3,0,0,0-.987.713.729.729,0,0,1-1.2-.824h0Z" transform="translate(-1753.159 -14.09)" fill="#0c3cfd"/>
          <path id="Path_43596" data-name="Path 43596" d="M1593.824,180.1a11.948,11.948,0,0,1,11.568-5.274c2.749.3,5.276,1.322,7.815,1.906a11.066,11.066,0,0,0,6.783-.327,25.077,25.077,0,0,0,3.452-1.666.516.516,0,0,1,.685.734,12.763,12.763,0,0,1-1.315,1.652,11.673,11.673,0,0,1-3.549,2.586c-5.027,2.309-9.6,0-14.44-.987a12.455,12.455,0,0,0-8.093,1.081c-.75.334-1.451.713-2.208,1.093a.549.549,0,0,1-.7-.8h0Z" transform="translate(-1593.728 -155.105)" fill="#0c3cfd"/>
        </g>
        <g id="Breeze" transform="translate(0 2.195)">
          <g id="Group_160909" data-name="Group 160909">
            <path id="Path_43597" data-name="Path 43597" d="M1128.994,97.966h-8.1a.486.486,0,0,0-.446.685,3.554,3.554,0,0,0,3.578,1.959,7.619,7.619,0,0,0,3.415-.793,1.213,1.213,0,0,1,1.585.485l.408.7a1.218,1.218,0,0,1-.447,1.668,10.179,10.179,0,0,1-5.142,1.275,7.5,7.5,0,0,1-5.727-2.131,7.422,7.422,0,0,1-1.978-5.238,7.284,7.284,0,0,1,2.054-5.264,7.86,7.86,0,0,1,10.478-.206,6.751,6.751,0,0,1,2,5.161v.015A1.687,1.687,0,0,1,1128.994,97.966Zm-8.312-2.876h5.626a.364.364,0,0,0,.345-.486,3.135,3.135,0,0,0-3.089-2.134,3.335,3.335,0,0,0-3.223,2.121.364.364,0,0,0,.341.5Z" transform="translate(-1088.315 -82.252)" fill="#082c75"/>
            <path id="Path_43598" data-name="Path 43598" d="M1265.994,97.966h-8.1a.486.486,0,0,0-.446.685,3.554,3.554,0,0,0,3.577,1.959,7.619,7.619,0,0,0,3.415-.793,1.213,1.213,0,0,1,1.585.485l.408.7a1.218,1.218,0,0,1-.447,1.668,10.179,10.179,0,0,1-5.142,1.275,7.5,7.5,0,0,1-5.727-2.131,7.422,7.422,0,0,1-1.978-5.238,7.284,7.284,0,0,1,2.054-5.264,7.86,7.86,0,0,1,10.478-.206,6.751,6.751,0,0,1,2,5.161v.015A1.687,1.687,0,0,1,1265.994,97.966Zm-8.312-2.876h5.626a.364.364,0,0,0,.345-.486,3.135,3.135,0,0,0-3.089-2.134,3.335,3.335,0,0,0-3.223,2.121.364.364,0,0,0,.341.5Z" transform="translate(-1208.622 -82.252)" fill="#082c75"/>
            <path id="Path_43599" data-name="Path 43599" d="M1509.4,103.373l.155-.211.016-.022.017-.022.283-.366.04-.052.045-.049.307-.339c.1-.111.2-.213.291-.312l.055-.058.009-.01.008-.01c.024-.024.048-.05.071-.074a4.71,4.71,0,0,1,.364-.357l.18-.16c.177-.156.358-.317.55-.479l.02-.017.021-.016a12.746,12.746,0,0,1,1.145-.812,7.615,7.615,0,0,1-2.969.591,3.556,3.556,0,0,1-3.578-1.959.486.486,0,0,1,.446-.685h8.1a1.687,1.687,0,0,0,1.682-1.68v-.015a6.751,6.751,0,0,0-2-5.161,7.4,7.4,0,0,0-12.532,5.47,7.336,7.336,0,0,0,1.978,5.238,7.14,7.14,0,0,0,4.912,2.1c.13-.193.26-.369.385-.539Zm-3.077-8.789a3.356,3.356,0,0,1,3.223-2.121,3.154,3.154,0,0,1,3.089,2.134.364.364,0,0,1-.345.486h-5.626a.364.364,0,0,1-.341-.5Z" transform="translate(-1427.265 -82.243)" fill="#082c75"/>
            <path id="Path_43600" data-name="Path 43600" d="M1388.158,100.437h5.171a1.219,1.219,0,0,1,1.219,1.218v1.8a.487.487,0,0,1-.487.487h-10.469a2.031,2.031,0,0,1-2.031-2.031V101.9a2.436,2.436,0,0,1,.578-1.575l5.945-7.016a.366.366,0,0,0-.279-.6h-5.433a.487.487,0,0,1-.487-.487v-1.8A1.219,1.219,0,0,1,1383.1,89.2h9.13a2.019,2.019,0,0,1,2.019,2.019v.04a2.433,2.433,0,0,1-.559,1.554l-5.816,7.024a.365.365,0,0,0,.281.6Z" transform="translate(-1321.394 -82.243)" fill="#082c75"/>
            <path id="Path_43601" data-name="Path 43601" d="M1025.47,103.391V89.617a.487.487,0,0,1,.487-.487h2.132a1.219,1.219,0,0,1,1.218,1.218v.2a.243.243,0,0,0,.434.151,4.091,4.091,0,0,1,3.378-1.561,5.3,5.3,0,0,1,.567.028,1.218,1.218,0,0,1,1.086,1.317l-.191,2.209a.487.487,0,0,1-.6.431,5.2,5.2,0,0,0-1.219-.146c-1.97,0-3.275,1.279-3.275,4.145v6.268a.487.487,0,0,1-.487.487h-3.042A.487.487,0,0,1,1025.47,103.391Z" transform="translate(-1008.693 -82.181)" fill="#082c75"/>
            <path id="Path_43602" data-name="Path 43602" d="M900.83,41.185a7.239,7.239,0,0,1,2.021,5.246,7.387,7.387,0,0,1-2,5.271,6.571,6.571,0,0,1-4.99,2.1,5.275,5.275,0,0,1-3.593-1.309.365.365,0,0,0-.6.278v.545a.487.487,0,0,1-.487.487h-2.915a.487.487,0,0,1-.487-.487V32.591a.487.487,0,0,1,.721-.428l2.662,1.459a1.221,1.221,0,0,1,.634,1.069v5.032a.487.487,0,0,0,.776.391,5.388,5.388,0,0,1,3.292-1.053A6.577,6.577,0,0,1,900.83,41.185Zm-3.071,2.636a3.323,3.323,0,0,0-2.559-1.075,3.417,3.417,0,0,0-2.584,1.075,3.593,3.593,0,0,0-1,2.584,3.758,3.758,0,0,0,1,2.636,3.417,3.417,0,0,0,2.584,1.075,3.323,3.323,0,0,0,2.559-1.075,3.715,3.715,0,0,0,1-2.636,3.551,3.551,0,0,0-1-2.584Z" transform="translate(-887.78 -32.103)" fill="#082c75"/>
          </g>
        </g>
      </g>
      <path id="Symbol" d="M76.462,26.968h-.1a2.241,2.241,0,0,1-2.183-1.991A27.575,27.575,0,0,0,46.931-.005,27.646,27.646,0,0,0,22.762,13.92a2.2,2.2,0,0,1-1.907,1.112h-.61a20.052,20.052,0,1,0-.194,40.1H76.618a14.083,14.083,0,1,0-.155-28.166ZM63.981,35.535a19.127,19.127,0,0,1-8.7,9q-.8.406-1.644.736a18.918,18.918,0,0,1-6.9,1.3H20.2A11.484,11.484,0,1,1,20.051,23.6h3.836a5.832,5.832,0,0,0,5.371-3.5,19,19,0,0,1,36.466,6.869c.006.2.01.4.01.6a18.889,18.889,0,0,1-1.753,7.97ZM76.519,46.567h-6.53a1.521,1.521,0,0,1-1.207-2.444,27.368,27.368,0,0,0,3.257-5.582,4.953,4.953,0,0,1,4.538-3h.041a5.523,5.523,0,0,1,5.515,5.421,5.6,5.6,0,0,1-5.613,5.611Z" transform="translate(0.001 0.006)" fill="#0c3cfd"/>
    </g>
  </g>
</svg>
