<svg xmlns="http://www.w3.org/2000/svg" width="44" height="50" viewBox="0 0 44 50">
  <g id="tabs_collaborators_collapsed" transform="translate(-1648 -78)">
    <rect id="Background" width="44" height="50" transform="translate(1648 78)" fill="none"/>
    <path id="Icon_-_Collaborators" data-name="Icon - Collaborators" d="M22936.6,3369.09a3.992,3.992,0,0,1,0-5.657l3.445-3.45a6.5,6.5,0,1,1,5.662,5.663l-3.451,3.451a4,4,0,0,1-5.656-.006Zm6.711-13.077a4.487,4.487,0,0,0-1.279,3.727l.121.968-4.143,4.142a2,2,0,0,0,2.836,2.828l4.135-4.142.969.121a4.461,4.461,0,0,0,3.732-1.279,4.5,4.5,0,0,0-6.371-6.365Zm1.773,4.591a2.008,2.008,0,1,1,1.412.583A2,2,0,0,1,22945.084,3360.6Z" transform="translate(-21274.43 -3259.844)"/>
  </g>
</svg>
