<svg xmlns="http://www.w3.org/2000/svg" width="44" height="50" viewBox="0 0 44 50">
  <g id="tabs_clients_collapsed" transform="translate(-1604 -78)">
    <rect id="Background" width="44" height="50" transform="translate(1604 78)" fill="none"/>
    <path id="Icon_-_My_Clients" data-name="Icon - My Clients" d="M22936,3370a4,4,0,0,1,0-8h8a4,4,0,1,1,0,8Zm-2-4a2,2,0,0,0,2,2h8a2,2,0,1,0,0-4h-8A2,2,0,0,0,22934,3366Zm1-11a5,5,0,1,1,5,5A5,5,0,0,1,22935,3355Zm2,0a3,3,0,1,0,3-3A3,3,0,0,0,22937,3355Z" transform="translate(-21314.004 -3258)"/>
  </g>
</svg>
