<svg xmlns="http://www.w3.org/2000/svg" width="56" height="56" viewBox="0 0 56 56">
  <g id="icon_address-history_blue-ribbon" transform="translate(-466 -324)">
    <rect id="Background" width="56" height="56" rx="12" transform="translate(466 324)" fill="#e7effe"/>
    <path id="Union_109" data-name="Union 109" d="M15014,1025a9,9,0,1,1,18,0c0,4.969-5.444,13-9,13S15014,1029.97,15014,1025Zm2,0c0,1.9,1.1,4.742,2.814,7.232,1.784,2.6,3.52,3.765,4.184,3.765s2.4-1.169,4.188-3.765c1.709-2.49,2.814-5.331,2.814-7.232a7,7,0,1,0-14,0Zm3,0a4,4,0,1,1,4,4A4,4,0,0,1,15019,1025Zm2,0a2,2,0,1,0,2-2A2,2,0,0,0,15021,1025Z" transform="translate(-14529 -675)" fill="#0c3cfd"/>
  </g>
</svg>
