<svg xmlns="http://www.w3.org/2000/svg" width="56" height="56" viewBox="0 0 56 56">
  <g id="icon_employment-history_caribbean-green" transform="translate(-466 -324)">
    <rect id="Background" width="56" height="56" rx="12" transform="translate(466 324)" fill="#e5f9f3"/>
    <path id="Icon_-_Briefcase" data-name="Icon - Briefcase" d="M-14632.3,1736a5.005,5.005,0,0,1-5-5v-10a5.008,5.008,0,0,1,5-5h.1a5.013,5.013,0,0,1,4.9-4h4a5.014,5.014,0,0,1,4.9,4h.1a5,5,0,0,1,5,5v10a5,5,0,0,1-5,5Zm-3-15v10a3,3,0,0,0,3,3h14a3,3,0,0,0,3-3v-10a3,3,0,0,0-3-3h-2v-1a3,3,0,0,0-2.817-2.994c-.019,0-.037,0-.052,0h-.062a.233.233,0,0,0-.051,0h-4.019a.531.531,0,0,0-.074,0,3.021,3.021,0,0,0-2.755,1.995,3.1,3.1,0,0,0-.169,1v1h-2A3,3,0,0,0-14635.3,1721Zm9,7a2,2,0,0,1-2-2h-3a1,1,0,0,1-1-1,1,1,0,0,1,1-1h12a1,1,0,0,1,1,1,1,1,0,0,1-1,1h-3a2,2,0,0,1-2,2Zm-2-10v-1a1.007,1.007,0,0,1,1-1h4a1,1,0,0,1,1,1v1Z" transform="translate(15119.303 -1373.002)" fill="#00c48b"/>
  </g>
</svg>
