<svg xmlns="http://www.w3.org/2000/svg" width="56" height="56" viewBox="0 0 56 56">
  <g id="icon_document_orange" transform="translate(-466 -324)">
    <rect id="Background" width="56" height="56" rx="12" transform="translate(466 324)" fill="#fff7f3"/>
    <path id="Icon_-_Document" data-name="Icon - Document" d="M-14634.921,1678a2.384,2.384,0,0,1-2.381-2.377v-17.251a2.384,2.384,0,0,1,2.381-2.377h12.468a2.364,2.364,0,0,1,1.679.7l2.77,2.766a2.41,2.41,0,0,1,.694,1.679v14.485a2.383,2.383,0,0,1-2.38,2.377Zm-.382-19v16a1,1,0,0,0,1,1h14a1,1,0,0,0,1-1v-12h-3a2,2,0,0,1-2-2v-3h4a1,1,0,0,1,1,1,1,1,0,0,0-1-1h-14A1,1,0,0,0-14635.3,1659Zm5.007,14a1,1,0,0,1-1-1,1,1,0,0,1,1-1h6a1,1,0,0,1,1,1,1,1,0,0,1-1,1Zm0-4a1.007,1.007,0,0,1-1-1,1,1,0,0,1,1-1h6a1,1,0,0,1,1,1,1.006,1.006,0,0,1-1,1Z" transform="translate(15121.301 -1315.004)" fill="#ff6414"/>
  </g>
</svg>
