<svg xmlns="http://www.w3.org/2000/svg" width="56" height="56" viewBox="0 0 56 56">
  <g id="icon_property_coral-red" transform="translate(-466 -324)">
    <rect id="Background" width="56" height="56" rx="12" transform="translate(466 324)" fill="#ffebeb"/>
    <path id="Icon_-_City" data-name="Icon - City" d="M-5912-2973v-1h0v-15h-9v2.948c0,.018,0,.036,0,.053a1,1,0,0,1-1,1,1,1,0,0,1-1-1h0v-3a2,2,0,0,1,2-2h9a2,2,0,0,1,2,2v12.5h0v3.5a1,1,0,0,1-1,1A1,1,0,0,1-5912-2973Zm-21,1a2,2,0,0,1-2-2v-5.891a1.939,1.939,0,0,1,.483-1.412,1.88,1.88,0,0,1,.177-.183l5.46-5.2a2,2,0,0,1,2.758,0l5.5,5.237a1.957,1.957,0,0,1,.62,1.565V-2974a2,2,0,0,1-2,2Zm0-8,0,.045V-2974h11v-5.951l0-.048,0,0-5.5-5.237Zm5,3a1,1,0,0,1-1-1v-1a1,1,0,0,1,1-1h1a1,1,0,0,1,1,1v1a1,1,0,0,1-1,1Zm12.5-2a.5.5,0,0,1-.5-.5v-1a.5.5,0,0,1,.5-.5h1a.5.5,0,0,1,.5.5v1a.5.5,0,0,1-.5.5Zm-3,0a.5.5,0,0,1-.5-.5v-1a.5.5,0,0,1,.5-.5h1a.5.5,0,0,1,.5.5v1a.5.5,0,0,1-.5.5Zm3-3a.5.5,0,0,1-.5-.5v-1a.5.5,0,0,1,.5-.5h1a.5.5,0,0,1,.5.5v1a.5.5,0,0,1-.5.5Zm-3,0a.5.5,0,0,1-.5-.5v-1a.5.5,0,0,1,.5-.5h1a.5.5,0,0,1,.5.5v1a.5.5,0,0,1-.5.5Zm3-3a.5.5,0,0,1-.5-.5v-1a.5.5,0,0,1,.5-.5h1a.5.5,0,0,1,.5.5v1a.5.5,0,0,1-.5.5Zm-3,0a.5.5,0,0,1-.5-.5v-1a.5.5,0,0,1,.5-.5h1a.5.5,0,0,1,.5.5v1a.5.5,0,0,1-.5.5Z" transform="translate(6415.995 3333.498)" fill="#fb3f3f"/>
  </g>
</svg>
